<svg width="45" height="42" viewBox="0 0 45 42" fill="none" xmlns="http://www.w3.org/2000/svg">
<path fill-rule="evenodd" clip-rule="evenodd" d="M36.9493 1.40165C32.7325 1.40165 29.1996 2.66164 26.3493 5.18111C24.6493 6.71592 23.4999 8.34283 22.8994 10.0619C22.6329 10.8628 22.4834 11.7143 22.4504 12.6149L22.4249 12.74L22.3749 12.8907V13.1155C22.3749 13.4158 22.4334 13.8583 22.5499 14.442C22.7169 15.2259 22.9579 15.9939 23.2744 16.7447C23.4744 17.2954 23.6584 17.7624 23.8254 18.1469C25.9583 14.5762 29.0661 11.464 33.1489 8.81038C33.2829 8.71077 33.4409 8.67723 33.6244 8.71077C33.7739 8.74381 33.8909 8.83591 33.9739 8.98559C34.0744 9.11975 34.1079 9.27794 34.0744 9.46165C34.0404 9.61133 33.9494 9.72847 33.7989 9.81156C29.4826 12.6824 26.3083 16.0194 24.2739 19.8234H24.2494V19.8489C23.5324 21.1835 22.9664 22.6021 22.5494 24.1039C26.8322 24.187 30.6076 25.3964 33.8739 27.7332C34.6074 28.2338 35.3648 28.8505 36.1483 29.5849C39.1646 32.4377 41.0231 35.7501 41.723 39.5216H43.5479C43.8974 39.5216 44.1984 39.6387 44.4484 39.8725C44.6819 40.1228 44.7979 40.4141 44.7979 40.7485C44.7979 41.0984 44.6819 41.3988 44.4484 41.6491C44.1984 41.8829 43.8974 42 43.5479 42H1.24994C0.899458 42 0.608471 41.8829 0.374982 41.6491C0.124994 41.3988 0 41.0984 0 40.7485C0 40.4141 0.124994 40.1228 0.374982 39.8725C0.609471 39.6387 0.900458 39.5216 1.25094 39.5216H2.27539C2.97536 35.7506 4.83377 32.4382 7.85013 29.5849C8.63309 28.834 9.39206 28.2082 10.1255 27.7077C13.3754 25.4385 17.0832 24.2456 21.25 24.1284C21.666 22.5105 22.2664 20.9662 23.0499 19.498C22.7334 18.8312 22.4159 18.0638 22.1 17.1953C21.8 16.4279 21.592 15.8106 21.475 15.3436C17.3757 16.3117 14.1588 15.8772 11.8259 14.041C8.90908 11.7383 7.52515 7.26656 7.67564 0.625738C7.67564 0.45854 7.73413 0.316873 7.85063 0.200236C7.96762 0.0830977 8.10062 0.0165195 8.25111 0H8.5011C15.4343 0 20.0506 2.72771 22.3499 8.18465C23.1164 6.74996 24.1749 5.44041 25.5248 4.25501C28.6086 1.53481 32.425 0.175206 36.9743 0.175206L41.9495 0.375443C42.9825 0.342404 43.7659 0.300354 44.2989 0.250295C44.5819 0.217256 44.7899 0.325383 44.9239 0.575678C45.0399 0.775414 45.0234 0.97565 44.8739 1.17589L44.8484 1.32656C43.4824 5.94801 42.699 9.26091 42.499 11.2633C42.3155 12.9658 42.0985 14.1332 41.8485 14.7674C40.8156 17.2869 39.0402 19.2307 36.5238 20.5993C34.4244 21.7336 32.224 22.3008 29.9246 22.3008C29.5076 22.3008 28.8496 22.1847 27.9502 21.9509L27.4247 21.8257C27.2742 21.7927 27.1582 21.7096 27.0752 21.5754C26.9747 21.4248 26.9412 21.2661 26.9747 21.0999C27.0077 20.9327 27.0997 20.8075 27.2502 20.7244C27.3832 20.6238 27.5332 20.5903 27.7002 20.6238L28.2502 20.749C29.0501 20.9662 29.6086 21.0743 29.9251 21.0743C32.008 21.0743 34.0169 20.5482 35.9503 19.4975C38.2002 18.2961 39.7741 16.5615 40.6746 14.2913C40.9081 13.7908 41.1081 12.7395 41.2741 11.1381C41.4575 9.11925 42.2 5.91497 43.4994 1.5268C43.1325 1.56034 42.6155 1.57736 41.9495 1.57736L36.9493 1.40165ZM28.0992 18.4212C28.2162 18.3051 28.3582 18.255 28.5242 18.2715C32.108 18.5218 35.1323 17.1617 37.5987 14.1917C37.7157 14.0586 37.8577 13.9835 38.0237 13.967C38.2072 13.9339 38.3577 13.975 38.4737 14.0921C38.6077 14.2082 38.6907 14.3504 38.7237 14.5176C38.7402 14.7013 38.6907 14.851 38.5742 14.9681C36.0578 18.0047 32.9904 19.5235 29.3746 19.5235C29.1576 19.5235 28.8491 19.507 28.4497 19.4735C28.2662 19.4569 28.1247 19.3894 28.0237 19.2732C27.9077 19.1391 27.8577 18.9899 27.8742 18.8227C27.8912 18.6715 27.9667 18.5384 28.0992 18.4212ZM32.474 29.7601C29.4241 27.6246 25.9243 26.5563 21.9745 26.5563C21.875 27.0744 21.7995 27.5915 21.75 28.1091C21.7335 28.2753 21.666 28.4095 21.55 28.5091C21.434 28.6097 21.3 28.6598 21.1495 28.6598H21.0755C20.9085 28.6433 20.7745 28.5677 20.675 28.434C20.5755 28.3009 20.5335 28.1507 20.55 27.9845C20.6 27.5169 20.666 27.0574 20.75 26.6079C17.2667 26.8416 14.1918 27.8924 11.525 29.7611C10.809 30.2782 10.15 30.8208 9.55055 31.388C7.06717 33.7248 5.48424 36.4359 4.80077 39.5226H39.1996C38.5162 36.4359 36.9243 33.7248 34.4244 31.388C33.8744 30.8534 33.2239 30.3107 32.474 29.7601ZM15.7503 6.45761C15.9162 6.42457 16.0752 6.4486 16.2247 6.5322C18.3416 7.75064 20.0496 9.26041 21.3495 11.0625C21.416 10.6621 21.5165 10.2536 21.6495 9.83659C19.8166 4.21297 15.5588 1.35109 8.87558 1.25148C8.85908 7.14192 10.1 11.0796 12.5999 13.0654C14.5833 14.6503 17.4582 15.0012 21.2245 14.1166C21.158 13.616 21.125 13.2827 21.125 13.1155V12.9658L21.0995 12.9147C19.8166 10.7457 17.9837 8.96857 15.5998 7.58394C15.4503 7.50034 15.3498 7.37519 15.2998 7.2085C15.2668 7.0413 15.2908 6.88311 15.3748 6.73244C15.4583 6.59928 15.5833 6.50767 15.7503 6.45761Z" fill="url(#paint0_linear)"/>
<defs>
<linearGradient id="paint0_linear" x1="22.5" y1="0" x2="22.5" y2="42" gradientUnits="userSpaceOnUse">
<stop stop-color="#F95730"/>
<stop offset="1" stop-color="#F48A19"/>
</linearGradient>
</defs>
</svg>
