<svg width="45" height="32" viewBox="0 0 45 32" fill="none" xmlns="http://www.w3.org/2000/svg">
<path d="M27.8209 17.3781C27.8209 20.2909 25.4401 22.6508 22.5 22.6508C19.5589 22.6508 17.177 20.2904 17.177 17.3781C17.177 14.4663 19.5589 12.1054 22.5 12.1054C25.4401 12.1054 27.8209 14.4663 27.8209 17.3781ZM13.3228 13.4966C12.52 13.4966 11.8691 14.1414 11.8691 14.9371C11.8691 15.7323 12.52 16.3765 13.3228 16.3765C14.1255 16.3765 14.7765 15.7323 14.7765 14.9371C14.7765 14.1414 14.126 13.4966 13.3228 13.4966ZM31.6752 13.4966C30.8724 13.4966 30.2215 14.1414 30.2215 14.9371C30.2215 15.7323 30.8724 16.3765 31.6752 16.3765C32.4785 16.3765 33.1289 15.7323 33.1289 14.9371C33.1289 14.1414 32.4785 13.4966 31.6752 13.4966ZM38.2425 18.6019C42.0817 17.5147 45 13.7215 45 9.67161C45 5.5545 45 0.431219 39.7858 0.431219C38.0699 0.431219 35.4797 1.28955 31.8794 3.05344C28.5724 1.00002 25.4986 0 22.499 0C19.4993 0 16.4255 0.999503 13.1186 3.05344C9.5509 1.30598 6.97674 0.447645 5.2608 0.432758C4.94829 0.422491 4.63475 0.574957 4.43677 0.824961C4.23828 1.07497 4.1678 1.40197 4.24606 1.7105L4.62386 3.19512L1.78901 2.99286C1.35057 2.95847 0.951515 3.20026 0.77168 3.59041C0.591846 3.98056 0.675803 4.44001 0.982092 4.7434L3.96205 7.69109L0.930785 7.99859C0.401647 8.05198 0 8.49346 0 9.02016V9.07458C0 9.4098 0.165323 9.72397 0.442589 9.91648L2.87579 11.6003L1.47495 12.032C1.19095 12.1198 0.958252 12.3241 0.83698 12.5936C0.715709 12.8626 0.717263 13.1712 0.840608 13.4391C2.00253 15.9551 4.22947 17.8827 6.75544 18.6014C8.46568 25.2114 14.4204 32 22.499 32C30.5775 32 36.5322 25.2114 38.2425 18.6019ZM5.51059 12.9381C5.8884 12.8216 6.16619 12.5023 6.22682 12.1152C6.28746 11.7281 6.12006 11.3405 5.79615 11.1162L3.847 9.76761L6.34447 9.51453C6.74249 9.47397 7.08142 9.21011 7.21565 8.8369C7.34936 8.46317 7.25452 8.04684 6.97155 7.76707L4.4176 5.24033L5.90551 5.34659C6.2403 5.37278 6.56058 5.2352 6.7741 4.98263C6.98814 4.73005 7.06639 4.39175 6.98503 4.07193L6.63365 2.69203C7.87746 2.99286 9.78878 3.68692 12.7148 5.15152C13.0445 5.31631 13.4399 5.29526 13.7503 5.09402C16.9018 3.04779 19.7636 2.05393 22.499 2.05393C25.2343 2.05393 28.0961 3.04779 31.2481 5.09197C31.558 5.29218 31.9524 5.31425 32.2836 5.14947C36.6831 2.94717 38.7918 2.48515 39.7864 2.48515C42.4735 2.48515 42.9275 4.27984 42.9275 9.67213C42.9275 13.3934 40.0045 16.1912 37.179 16.7462C36.7738 16.8257 36.455 17.1363 36.3674 17.5367C35.0552 23.5527 29.7488 29.9466 22.499 29.9466C15.2491 29.9466 9.9427 23.5527 8.631 17.5367C8.54394 17.1363 8.22469 16.8257 7.81942 16.7462C6.06046 16.4007 4.38391 15.2169 3.30698 13.6173L5.51059 12.9381Z" fill="url(#paint0_linear)"/>
<defs>
<linearGradient id="paint0_linear" x1="22.5" y1="0" x2="22.5" y2="32" gradientUnits="userSpaceOnUse">
<stop stop-color="#F95730"/>
<stop offset="1" stop-color="#F48A19"/>
</linearGradient>
</defs>
</svg>
