<svg width="21" height="21" viewBox="0 0 21 21" fill="none" xmlns="http://www.w3.org/2000/svg">
<g opacity="0.7">
<path d="M18.1538 8H9.84615C8.82655 8 8 8.82655 8 9.84615V18.1538C8 19.1734 8.82655 20 9.84615 20H18.1538C19.1734 20 20 19.1734 20 18.1538V9.84615C20 8.82655 19.1734 8 18.1538 8Z" stroke="white" stroke-width="2"/>
<path d="M3.76923 13H2.84615C2.35652 13 1.88695 12.8055 1.54073 12.4593C1.1945 12.1131 1 11.6435 1 11.1538V2.84615C1 2.35652 1.1945 1.88695 1.54073 1.54073C1.88695 1.1945 2.35652 1 2.84615 1H11.1538C11.6435 1 12.1131 1.1945 12.4593 1.54073C12.8055 1.88695 13 2.35652 13 2.84615V3.76923" stroke="white" stroke-width="2" stroke-linecap="round" stroke-linejoin="round"/>
</g>
</svg>
