<svg width="12" height="24" viewBox="0 0 12 24" fill="none" xmlns="http://www.w3.org/2000/svg">
<path d="M3.14233 4.75788C3.14233 5.3347 3.14233 7.90929 3.14233 7.90929H0.833496V11.7629H3.14233V23.2143H7.88516V11.7632H11.0678C11.0678 11.7632 11.3659 9.91542 11.5104 7.89508C11.0961 7.89508 7.90309 7.89508 7.90309 7.89508C7.90309 7.89508 7.90309 5.65321 7.90309 5.26025C7.90309 4.86645 8.4202 4.33672 8.9313 4.33672C9.44144 4.33672 10.5181 4.33672 11.5154 4.33672C11.5154 3.81206 11.5154 1.99921 11.5154 0.324951C10.1841 0.324951 8.66952 0.324951 8.00191 0.324951C3.02509 0.324685 3.14233 4.18207 3.14233 4.75788Z" fill="#29487E"/>
</svg>
