<svg width="12" height="24" viewBox="0 0 12 24" fill="none" xmlns="http://www.w3.org/2000/svg">
<g opacity="0.7">
<path d="M3.27856 5.09724C3.27856 5.67406 3.27856 8.24865 3.27856 8.24865H0.969727V12.1022H3.27856V23.5536H8.02139V12.1025H11.204C11.204 12.1025 11.5021 10.2548 11.6466 8.23444C11.2324 8.23444 8.03932 8.23444 8.03932 8.23444C8.03932 8.23444 8.03932 5.99256 8.03932 5.59961C8.03932 5.2058 8.55643 4.67608 9.06753 4.67608C9.57767 4.67608 10.6544 4.67608 11.6516 4.67608C11.6516 4.15141 11.6516 2.33857 11.6516 0.664307C10.3203 0.664307 8.80576 0.664307 8.13814 0.664307C3.16132 0.664041 3.27856 4.52143 3.27856 5.09724Z" fill="white"/>
</g>
</svg>
