<svg width="45" height="36" viewBox="0 0 45 36" fill="none" xmlns="http://www.w3.org/2000/svg">
<path fill-rule="evenodd" clip-rule="evenodd" d="M38.4129 14.4497L27.973 14.4011C26.7568 14.4011 22.759 12.1633 23.3612 10.0451C24.018 7.77133 25.9075 7.7616 27.8592 7.81317C28.5325 5.33213 29.4957 3.2714 32.4516 3.01746C35.3169 2.76838 36.8066 4.52262 37.8768 6.85189C38.9033 6.9161 39.7828 6.91902 40.6848 7.53004C43.4927 9.43315 42.3689 14.4497 38.4129 14.4497ZM29.9881 17.2119H38.4139C45.0047 17.2119 47.3271 8.71024 42.2288 5.25332C41.5089 4.76489 40.6546 4.41073 39.67 4.24338C38.1492 1.59596 35.2975 -0.00260593 32.2161 0.266904C29.2943 0.520846 26.8892 2.38406 25.8053 5.07429C23.3593 5.33991 21.3645 7.63804 20.6757 10.0451C23.7162 11.7139 25.8734 17.2119 29.9881 17.2119Z" fill="url(#paint0_linear)"/>
<path fill-rule="evenodd" clip-rule="evenodd" d="M28.0136 32.5407H8.61763C4.32591 32.5407 1.90908 28.3375 3.03285 24.399C4.08462 20.7251 6.9889 20.1034 10.4264 20.1919L10.7095 19.1499C11.6961 15.5169 14.5128 12.8393 18.3657 12.5075C22.9474 12.1125 25.9061 14.7852 27.7042 18.6965C29.3611 18.7977 30.6941 18.9242 32.1321 19.8981C33.9924 21.16 34.9605 23.3414 34.9653 25.55C34.9751 29.6588 32.0562 32.5407 28.0136 32.5407ZM8.61763 35.303H28.0136C33.5682 35.303 37.7305 31.1776 37.7159 25.549C37.7081 22.4151 36.3061 19.4077 33.6742 17.6214C32.5193 16.8391 31.128 16.2894 29.5012 16.0744C27.2848 11.9286 22.9493 9.33858 18.1283 9.75598C13.5534 10.1491 9.87761 13.1711 8.35688 17.4317C4.51661 17.671 1.43817 19.936 0.378617 23.644C-1.25206 29.3621 2.54929 35.303 8.61763 35.303Z" fill="url(#paint1_linear)"/>
<defs>
<linearGradient id="paint0_linear" x1="20.6757" y1="0.237427" x2="20.6757" y2="42.6003" gradientUnits="userSpaceOnUse">
<stop stop-color="#F95730"/>
<stop offset="1" stop-color="#F48A19"/>
</linearGradient>
<linearGradient id="paint1_linear" x1="24.3242" y1="-7.05983" x2="24.3242" y2="35.3031" gradientUnits="userSpaceOnUse">
<stop stop-color="#F95730"/>
<stop offset="1" stop-color="#F48A19"/>
</linearGradient>
</defs>
</svg>
