<svg width="45" height="47" viewBox="0 0 45 47" fill="none" xmlns="http://www.w3.org/2000/svg">
<path d="M43.7972 18.3541L40.9737 15.7931V4.14325C40.9737 3.3772 40.6527 2.64253 40.0813 2.10085C39.5099 1.55917 38.7349 1.25486 37.9269 1.25486H35.2151C34.4071 1.25486 33.6321 1.55917 33.0607 2.10085C32.4893 2.64253 32.1683 3.3772 32.1683 4.14325V7.8115L24.4749 0.802346C23.9078 0.287436 23.1528 0 22.3675 0C21.5822 0 20.8272 0.287436 20.2601 0.802346L0.937801 18.3541C0.49753 18.7544 0.19416 19.2708 0.0669646 19.8364C-0.0602309 20.402 -0.00539453 20.9908 0.224376 21.5265C0.454146 22.0623 0.848268 22.5203 1.35572 22.8413C1.86317 23.1623 2.46058 23.3315 3.07061 23.327H3.78155V41.6201C3.78155 42.8968 4.31657 44.1213 5.2689 45.0241C6.22123 45.9269 7.51287 46.4341 8.85968 46.4341H35.8956C37.2424 46.4341 38.5341 45.9269 39.4864 45.0241C40.4387 44.1213 40.9737 42.8968 40.9737 41.6201V23.327H41.6644C42.2744 23.3315 42.8718 23.1623 43.3793 22.8413C43.8867 22.5203 44.2808 22.0623 44.5106 21.5265C44.7404 20.9908 44.7952 20.402 44.668 19.8364C44.5408 19.2708 44.2374 18.7544 43.7972 18.3541ZM34.1995 4.14325C34.1995 3.8879 34.3065 3.64301 34.497 3.46245C34.6875 3.28189 34.9458 3.18045 35.2151 3.18045H37.9269C38.1962 3.18045 38.4545 3.28189 38.645 3.46245C38.8355 3.64301 38.9425 3.8879 38.9425 4.14325V13.9445L34.1995 9.61193V4.14325ZM17.4163 44.5085V29.5602H27.3187V44.5085H17.4163ZM38.9425 41.6201C38.9425 42.3861 38.6215 43.1208 38.0501 43.6625C37.4787 44.2041 36.7037 44.5085 35.8956 44.5085H29.3499V28.5974C29.3499 28.342 29.2429 28.0971 29.0524 27.9166C28.862 27.736 28.6036 27.6346 28.3343 27.6346H16.4007C16.1313 27.6346 15.873 27.736 15.6825 27.9166C15.4921 28.0971 15.3851 28.342 15.3851 28.5974V44.5085H8.83936C8.03128 44.5085 7.2563 44.2041 6.6849 43.6625C6.1135 43.1208 5.79249 42.3861 5.79249 41.6201V23.327H38.9425V41.6201ZM41.6847 21.4014H3.07061C2.86849 21.4006 2.67121 21.3427 2.50401 21.235C2.33681 21.1274 2.20729 20.9749 2.13204 20.797C2.05678 20.6192 2.03921 20.4241 2.08157 20.2368C2.12394 20.0494 2.2243 19.8783 2.36983 19.7454L21.6667 2.19359C21.8558 2.02148 22.1079 1.92537 22.37 1.92537C22.6322 1.92537 22.8842 2.02148 23.0733 2.19359L42.3702 19.7454C42.5161 19.8786 42.6165 20.0502 42.6587 20.238C42.7009 20.4258 42.6829 20.6212 42.6071 20.7993C42.5312 20.9773 42.4009 21.1298 42.2329 21.237C42.0649 21.3443 41.8669 21.4016 41.6644 21.4014H41.6847Z" fill="url(#paint0_linear)"/>
<defs>
<linearGradient id="paint0_linear" x1="22.3675" y1="0" x2="22.3675" y2="46.4341" gradientUnits="userSpaceOnUse">
<stop stop-color="#F95730"/>
<stop offset="1" stop-color="#F48A19"/>
</linearGradient>
</defs>
</svg>
