<svg width="86" height="92" viewBox="0 0 86 92" fill="none" xmlns="http://www.w3.org/2000/svg">
<path d="M32.3411 0.11957C32.3411 0.11957 29.5015 0.903195 29.5015 2.66792C29.5015 4.43264 30.8978 5.99362 31.8652 4.03769C32.8326 2.08177 34.5295 1.33262 34.5295 1.33262C34.5295 1.33262 34.5921 -0.372547 32.3411 0.11957Z" fill="black"/>
<path d="M34.0796 1.58124C34.0796 1.58124 34.1516 0.333712 36.4527 0.0296658C38.7538 -0.274381 38.7538 1.83514 37.3356 2.86325C35.9142 3.8945 36.7 4.72515 35.5729 5.55892C34.4459 6.39583 33.2248 4.46498 34.0796 1.58124Z" fill="black"/>
<path d="M38.2738 1.50816C38.2738 1.50816 38.9031 -0.0089362 40.2274 0.0318124C41.5486 0.0725609 41.9556 0.276303 41.9994 1.71817C42.0401 3.16004 40.0834 3.79948 39.6419 4.68028C39.1974 5.56107 37.7415 3.68037 38.2738 1.50816Z" fill="black"/>
<path d="M30.1192 2.48809C30.1192 2.48809 30.6733 0.936514 32.0133 0.67635C33.3533 0.416187 32.4047 1.7891 31.8192 2.18091C31.2306 2.57272 31.1555 3.51307 30.9144 4.03967C30.6765 4.56626 29.8124 3.09618 30.1192 2.48809Z" fill="#414042"/>
<path d="M34.2006 3.02925C34.2006 3.02925 33.972 1.33035 35.0834 0.772406C36.1949 0.2176 36.9118 0.869576 36.2262 1.62186C35.5405 2.37414 35.1148 3.54957 35.0521 4.33633C34.9833 5.11996 34.5262 4.99144 34.2006 3.02925Z" fill="#414042"/>
<path d="M38.6083 2.87822C38.6083 2.87822 38.411 1.36112 39.5882 0.640187C40.7622 -0.0776129 41.1285 1.48964 40.5368 1.98175C39.9451 2.47074 39.391 3.50825 39.391 4.03798C39.391 4.56458 38.6677 4.74011 38.6083 2.87822Z" fill="#414042"/>
<path d="M67.4619 78.7736C67.469 78.7736 67.4738 78.7712 67.4809 78.7712C70.6926 77.6488 73.8453 76.1547 76.6739 74.2793C76.6928 74.1846 76.7118 74.0899 76.733 73.9952C79.0981 63.5647 70.9646 65.3122 70.9646 65.3122C70.9646 65.3122 70.9646 65.3122 63.8599 62.1274C56.7552 58.9426 49.5039 63.5031 49.5039 63.5031C49.5039 63.5031 49.3549 57.7563 43.9294 56.158C38.5039 54.5597 36.6284 60.8701 36.6284 60.8701C31.9598 59.8827 28.8402 58.2678 26.8914 56.1249C23.8003 55.4169 20.5696 53.8872 18.0768 50.8374C17.8497 54.9978 19.0464 59.5583 21.3335 63.5031C25.0561 64.2182 29.0105 66.392 29.0105 66.392C29.0105 66.392 46.058 83.6443 67.4619 78.7736Z" fill="#9F9E9F"/>
<path d="M80.9054 52.6487C75.9362 41.776 54.5947 44.0766 49.4465 43.7209C43.8997 43.3364 25.2308 42.5789 20.0993 47.815C18.7341 49.2068 18.0228 50.8739 17.8796 52.6487C24.7295 58.2935 37.1 58.9447 37.1 58.9447C37.1 58.9447 39.8877 54.5873 46.4583 54.2735C53.029 53.9581 77.7865 61.5531 77.7865 61.5531C77.7865 61.5531 74.8598 48.951 80.9054 52.6487Z" fill="#E6E7E8"/>
<path d="M67.4627 78.7747C46.0564 83.6454 29.0113 66.3908 29.0113 66.3908C29.0113 66.3908 25.0569 64.2147 21.3342 63.502C23.0016 66.386 25.2461 68.9433 27.9399 70.7737C27.9399 70.7737 36.2248 78.5143 48.4427 80.939C53.258 81.8956 60.507 81.2089 67.4816 78.7724C67.4745 78.77 67.4698 78.7747 67.4627 78.7747Z" fill="#B7B7B7"/>
<path d="M75.9294 74.8044C82.5422 70.4214 81.861 63.8142 81.5653 55.1265C81.5157 53.656 81.2862 52.3063 80.9055 51.0656C74.9147 45.6242 75.6519 60.8837 75.6519 60.8837C75.6519 60.8837 52.9093 50.599 46.3959 51.0655C39.8848 51.5272 37.1224 57.9394 37.1224 57.9394C37.1224 57.9394 32.2149 59.1375 26.8911 57.9062C28.8423 60.0492 31.9618 61.6641 36.6281 62.6515C36.6281 62.6515 38.5036 56.3435 43.9291 57.9394C49.3546 59.5401 49.5036 65.2845 49.5036 65.2845C49.5036 65.2845 56.7549 60.724 63.8596 63.9088C70.9643 67.0936 70.9643 67.0936 70.9643 67.0936C70.9643 67.0936 78.3536 64.085 75.9886 74.5155C75.9673 74.6149 75.9484 74.7097 75.9294 74.8044Z" fill="#787878"/>
<path d="M42.1061 57.7644C42.1061 57.7644 36.7776 62.5878 34.4101 68.1783C32.0427 73.7665 35.7677 60.1868 37.1252 57.942C38.4828 55.6973 45.5094 53.0239 42.1061 57.7644Z" fill="#787878"/>
<path d="M65.8417 24.4195C65.8629 24.3983 65.9455 24.3156 66.0374 24.1952C65.9289 24.3085 65.8582 24.3936 65.8417 24.4195Z" fill="#B7B7B7"/>
<path d="M53.4441 63.9539C57.8928 60.3831 61.4925 50.7554 63.7038 45.958C66.374 40.171 66.8919 36.5765 67.4383 34.391C67.987 32.2078 67.6298 29.409 68.512 27.446C69.3966 25.4807 70.1345 25.4168 69.8388 23.2975C69.5432 21.1783 67.0362 21.5761 67.0362 21.5761C66.1256 19.6865 63.7984 20.9202 63.7984 20.9202C61.7171 20.1932 60.466 20.7663 59.5105 21.8673C59.5105 21.8673 63.0723 21.4624 62.5804 22.9423C62.1783 24.1452 62.105 24.3702 62.0885 24.4152C62.1925 24.2612 63.8173 21.8792 65.4398 22.5493C66.6602 23.0489 66.3149 23.8137 66.0381 24.1949C66.5301 23.6669 67.7765 22.6037 68.0059 25.019C68.2968 28.0427 66.5253 28.1801 64.7492 30.4509C62.973 32.724 64.9478 32.3475 64.5505 35.9917C64.5505 35.9917 58.0394 40.1307 55.5727 46.6518C53.1083 53.1706 53.9952 59.2986 53.9952 59.2986C53.9952 59.2986 51.3155 65.5451 43.9318 66.0068C46.6469 66.9871 50.0881 66.6461 53.4441 63.9539Z" fill="#787878"/>
<path d="M70.6067 68.0624C75.2919 66.7269 79.296 65.5051 76.6873 54.5039C74.003 43.1879 66.8226 43.0955 67.5108 41.3172C68.2038 39.539 74.8118 43.6875 76.983 43.517C79.1565 43.3441 82.0159 41.3172 82.0159 38.2366C82.0159 35.1513 80.5353 34.7985 81.129 33.7164C81.7202 32.6343 85.3743 27.3894 84.0877 26.608C82.8058 25.8219 81.4246 27.7849 81.4246 27.7849C80.8333 25.7106 79.4545 26.4044 78.2696 29.646C77.0847 32.89 76.6897 35.3928 75.8004 32.3312C74.9135 29.2672 74.0243 29.665 74.0243 29.665C73.6269 30.5174 73.4992 31.3367 73.5181 32.0612C73.5181 32.0612 74.0739 31.1686 75.0365 33.0202C75.9991 34.8719 76.7346 34.3533 76.7346 34.3533C76.7346 34.3533 78.2909 29.0185 79.4758 29.2411C80.6394 29.4613 78.4493 33.5317 78.3689 33.6832C78.4706 33.579 80.3627 31.6327 80.3627 32.3525C80.3627 33.0936 78.8821 35.4639 78.5865 36.3518C78.2909 37.2398 78.8088 39.9084 76.1457 39.9084C73.4827 39.9084 67.2672 38.7978 65.4911 39.9084C63.7149 41.0189 57.393 47.9236 57.3718 52.6215C57.3505 57.1725 59.33 64.1246 65.2593 66.644C65.3019 66.6629 65.3421 66.6795 65.3846 66.6937C65.4698 66.7292 65.5596 66.7648 65.6448 66.7979C65.711 66.824 65.7772 66.8476 65.8435 66.8713C65.9215 66.8974 65.9972 66.9281 66.0681 66.9566C67.5771 67.5083 69.1144 67.8871 70.6067 68.0624Z" fill="#9F9E9F"/>
<path d="M43.9323 66.0094C51.3161 65.5477 53.9957 59.3013 53.9957 59.3013C53.9957 59.3013 53.1088 53.1732 55.5732 46.6545C58.0376 40.1357 64.5511 35.9943 64.5511 35.9943C64.9484 32.3501 62.9736 32.7266 64.7497 30.4535C66.5259 28.1827 68.295 28.0454 68.0064 25.0216C67.7747 22.6064 66.5306 23.6695 66.0387 24.1976C65.9465 24.3183 65.8637 24.4012 65.8424 24.4225C65.8613 24.3965 65.9323 24.3089 66.0387 24.1976C66.3178 23.8187 66.6607 23.0539 65.4403 22.5519C63.8179 21.8818 62.1931 24.2639 62.089 24.4178C62.1032 24.3728 62.1789 24.1478 62.581 22.945C63.0729 21.4627 59.5111 21.8699 59.5111 21.8699C58.7614 22.7342 58.1937 23.9324 57.5528 25.0855C56.0912 27.702 53.0852 27.4629 53.0852 27.4629C53.0852 27.4629 51.8955 29.1725 53.5653 30.0509C55.2327 30.9318 55.779 30.7305 55.779 30.7305C54.2748 35.2413 41.4064 54.2719 41.4064 54.2719C39.6752 56.815 38.6842 62.3629 41.5389 64.6621C42.2366 65.2257 43.0454 65.685 43.9323 66.0094Z" fill="#9F9E9F"/>
<path d="M66.0354 24.1952C65.9292 24.3085 65.8585 24.3936 65.8396 24.4195C65.8608 24.4006 65.9434 24.3156 66.0354 24.1952Z" fill="#B7B7B7"/>
<path d="M81.9156 61.3395C84.1861 52.183 77.0317 45.5103 77.0317 45.5103C77.0317 45.5103 82.9018 44.8733 84.1861 42.702C85.468 40.5259 83.7887 35.5889 84.0844 33.813C84.38 32.0371 87.2418 26.404 85.3686 25.4142C83.4931 24.4268 82.4099 25.812 82.4099 25.812C82.4099 25.812 81.9156 22.5514 79.8438 24.0337C77.772 25.516 77.3794 30.8484 77.3794 30.8484C77.3794 30.8484 76.2938 25.9091 74.3686 29.0205C74.2362 29.2359 74.1203 29.449 74.0233 29.6645C74.0233 29.6645 74.9102 29.2667 75.7995 32.3307C76.6864 35.3924 77.0838 32.8919 78.2687 29.6456C79.4536 26.404 80.8324 25.7102 81.4237 27.7844C81.4237 27.7844 82.8049 25.8238 84.0867 26.6076C85.371 27.389 81.7193 32.6362 81.128 33.7159C80.5368 34.7981 82.0149 35.1509 82.0149 38.2362C82.0149 41.3192 79.1556 43.3461 76.9821 43.5166C74.8133 43.6894 68.2029 39.5409 67.5099 41.3168C66.8193 43.0951 74.0021 43.1874 76.6864 54.5035C79.2975 65.5022 75.2934 66.7241 70.6058 68.0619C75.8397 68.6847 80.5533 66.8401 81.9156 61.3395Z" fill="#787878"/>
<path d="M57.7935 26.9464C57.9402 26.6078 58.2382 24.6329 59.5697 24.1973C60.9013 23.7616 58.5338 29.1698 57.7935 32.7997C57.0533 36.4297 47.9525 50.8761 46.4719 53.1729C44.9914 55.4697 42.8462 59.6182 42.4016 61.4699C41.957 63.3216 39.677 62.0003 40.668 57.9441C41.659 53.888 52.4154 38.0588 53.8841 35.3191C55.3504 32.5748 56.8286 29.1627 57.7935 26.9464Z" fill="#B7B7B7"/>
<path d="M65.2573 66.6461C59.3281 64.1267 57.3485 57.1746 57.3698 52.6236C57.3911 47.9257 63.7129 41.021 65.4891 39.9105C67.2653 38.8 73.4807 39.9105 76.1438 39.9105C78.8069 39.9105 78.2889 37.2443 78.5846 36.3539C78.8802 35.466 80.3607 33.0934 80.3607 32.3546C80.3607 31.6348 78.4663 33.5812 78.367 33.6854C78.4474 33.5338 80.6374 29.4634 79.4738 29.2432C78.2889 29.0206 76.7327 34.3555 76.7327 34.3555C76.7327 34.3555 75.9948 34.874 75.0346 33.0223C74.0743 31.1707 73.5162 32.0634 73.5162 32.0634C73.5517 33.7564 74.3676 34.9498 74.3676 34.9498C64.7488 35.1061 55.5369 44.8333 54.5009 51.8398C53.465 58.8487 60.3072 63.916 60.3072 63.916C61.8469 65.0194 63.5285 65.9429 65.2573 66.6461Z" fill="#B7B7B7"/>
<path d="M17.1709 60.0614C21.2956 60.6581 27.6907 69.4216 26.3521 79.182C26.2244 80.0913 25.9926 80.9153 25.671 81.6635C25.1601 83.2358 24.1337 84.4458 22.9724 86.0512C21.8112 87.659 22.7028 88.5161 22.7028 88.5161C21.3098 88.7695 19.9309 87.9644 19.8552 87.9218C20.4962 88.6937 19.8529 90.2352 19.8529 90.2352C19.1292 89.1152 16.7073 89.2644 16.7073 89.2644L17.327 90.4602C14.2547 90.4602 13.3253 89.5485 13.2709 89.4917L14.153 91.0545C13.9851 90.9669 8.6495 88.1089 7.65853 85.9044L7.65853 86.8018C7.65853 86.8018 2.47901 84.0716 1.77895 77.129C1.07889 70.1888 5.64585 64.9937 7.966 63.3504C8.72992 62.8105 9.82495 61.8184 10.6243 60.8476C12.8688 60.1206 15.2788 59.7868 17.1709 60.0614Z" fill="#9F9E9F"/>
<path d="M13.6912 68.8866C13.6912 68.8866 10.8295 68.1194 8.50933 70.6743C6.18919 73.2293 5.95741 79.5325 8.50933 81.917C11.0612 84.3014 15.0062 84.3867 15.0062 84.3867L14.6585 83.1933C14.6585 83.1933 16.553 83.0228 17.1702 84.3867C17.1702 84.3867 18.0217 83.2785 17.1702 81.576C17.1702 81.576 18.2534 82.5989 19.6465 82.2579C19.6465 82.2579 19.1049 80.9793 19.1049 80.385C19.1049 80.385 21.6568 81.4079 22.6619 79.1063C22.6619 79.1063 21.8909 79.8735 20.6516 77.8277C20.6516 77.8277 21.1909 77.0605 22.1984 77.5719C22.1984 77.5719 22.3781 74.8228 21.2453 73.6413C21.2453 73.6413 22.3545 73.1416 23.1279 73.9941C23.1279 73.9941 21.1932 69.4809 19.1049 69.1399C17.0165 68.8013 13.6912 68.8866 13.6912 68.8866Z" fill="#707071"/>
<path d="M10.6242 60.8431C9.82479 61.814 8.72976 62.8061 7.96584 63.346C5.6457 64.9893 1.07873 70.1844 1.77879 77.1246C2.47886 84.0672 7.65838 86.7974 7.65838 86.7974L7.65838 85.8999C8.64934 88.1044 13.985 90.9648 14.1529 91.05C14.1552 91.0524 14.1552 91.0524 14.1552 91.0524C11.9132 90.7541 8.91896 88.7366 8.91896 88.7366L8.91896 90.4297C8.81727 89.833 7.77663 88.8219 6.76438 87.9623C5.75449 87.1075 4.76825 86.3972 4.76825 86.3972C0.605713 83.8044 -0.231523 78.2896 0.0522866 74.1032C0.362112 69.5237 4.48681 64.6175 4.48681 64.6175C5.56765 63.0689 7.98239 61.6908 10.6242 60.8431Z" fill="#B7B7B7"/>
<path d="M17.1709 50.2011C21.2956 49.6044 27.6907 40.8409 26.3521 31.0805C26.2244 30.1712 25.9926 29.3472 25.671 28.599C25.1601 27.0267 24.1337 25.8167 22.9724 24.2113C21.8112 22.6035 22.7028 21.7464 22.7028 21.7464C21.3098 21.493 19.9309 22.2981 19.8552 22.3407C20.4962 21.5688 19.8529 20.0273 19.8529 20.0273C19.1292 21.1473 16.7073 20.9981 16.7073 20.9981L17.327 19.8023C14.2547 19.8023 13.3253 20.714 13.2709 20.7708L14.153 19.208C13.9851 19.2956 8.6495 22.1536 7.65854 24.3581L7.65854 23.4631C7.65854 23.4631 2.47902 26.1932 1.77895 33.1358C1.07889 40.076 5.64585 45.2712 7.966 46.9145C8.72992 47.4543 9.82495 48.4465 10.6243 49.4173C12.8688 50.1419 15.2788 50.4757 17.1709 50.2011Z" fill="#9F9E9F"/>
<path d="M13.6912 41.3789C13.6912 41.3789 10.8295 42.1461 8.50933 39.5911C6.18919 37.0362 5.95741 30.7329 8.50933 28.3485C11.0612 25.964 15.0062 25.8788 15.0062 25.8788L14.6585 27.0722C14.6585 27.0722 16.553 27.2427 17.1702 25.8788C17.1702 25.8788 18.0217 26.9869 17.1702 28.6894C17.1702 28.6894 18.2534 27.6665 19.6465 28.0075C19.6465 28.0075 19.1049 29.2862 19.1049 29.8805C19.1049 29.8805 21.6568 28.8576 22.6619 31.1591C22.6619 31.1591 21.8909 30.3919 20.6516 32.4378C20.6516 32.4378 21.1909 33.205 22.1984 32.6935C22.1984 32.6935 22.3781 35.4426 21.2453 36.6242C21.2453 36.6242 22.3545 37.1238 23.1279 36.2714C23.1279 36.2714 21.1932 40.7845 19.1049 41.1255C17.0165 41.4641 13.6912 41.3789 13.6912 41.3789Z" fill="#707071"/>
<path d="M10.6244 49.4197C9.82496 48.4488 8.72993 47.4567 7.96601 46.9168C5.64586 45.2735 1.0789 40.0784 1.77896 33.1382C2.47903 26.1956 7.65855 23.4654 7.65855 23.4654L7.65855 24.3605C8.64951 22.156 13.9851 19.2956 14.1531 19.2104C14.1554 19.208 14.1554 19.208 14.1554 19.208C11.9133 19.5064 8.91913 21.5238 8.91913 21.5238L8.91913 19.8308C8.81743 20.4275 7.7768 21.4385 6.76455 22.2981C5.75229 23.1576 4.76606 23.8703 4.76606 23.8703C0.603518 26.4632 -0.23372 31.9779 0.0500891 36.1643C0.359914 40.7438 4.48461 45.65 4.48461 45.65C5.56782 47.1939 7.98256 48.5743 10.6244 49.4197Z" fill="#B7B7B7"/>
<path d="M25.8035 73.4921C25.8058 73.4921 25.8082 73.4921 25.8082 73.4921C27.3668 73.215 28.8095 72.7391 30.0346 72.0311C36.3895 68.3561 36.0939 60.2746 36.0939 55.1316C36.0939 49.9886 36.3895 41.9047 30.0346 38.2321C28.8071 37.5241 27.3644 37.0482 25.8082 36.7711C25.8082 36.7711 25.8058 36.7711 25.8035 36.7711C25.3517 36.7995 2.54529 38.4002 2.54529 55.1316C2.54529 71.863 25.3517 73.4636 25.8035 73.4921Z" fill="#9F9E9F"/>
<path d="M30.3519 58.2189C31.324 57.4967 31.324 55.9742 31.324 55.1312C31.324 54.2882 31.324 52.7657 30.3519 52.0435C29.3799 51.3213 25.5272 51.4184 23.4246 52.0435C20.1892 53.0072 20.1892 55.1312 20.1892 55.1312C20.1892 55.1312 20.1892 57.2552 23.4246 58.2189C25.5296 58.8464 29.3823 58.9411 30.3519 58.2189Z" fill="black"/>
<path d="M25.8025 73.4919C25.3508 73.4635 2.54436 71.8629 2.54436 55.1315C2.54436 38.4001 25.3508 36.7994 25.8025 36.771C19.3033 35.6179 10.0535 37.9194 6.41363 41.0237C0.746904 45.8494 0.770553 55.1315 0.770553 55.1315C0.770553 55.1315 0.425253 64.4633 6.09198 69.289C9.73183 72.3933 19.3033 74.6451 25.8025 73.4919Z" fill="#B7B7B7"/>
<path d="M28.7621 55.1319C28.7621 53.2092 27.6363 52.5462 24.4529 53.3347C21.2718 54.1256 21.2719 55.1319 21.2719 55.1319C21.2719 55.1319 21.2718 56.1383 24.4529 56.9292C27.6363 57.7177 28.7621 57.057 28.7621 55.1319Z" fill="#1F2328"/>
<path d="M20.6908 47.9173C19.2443 48.2484 17.8036 47.3429 17.4729 45.8948C17.1421 44.4466 18.0466 43.0042 19.493 42.6731C20.9395 42.3419 22.3802 43.2474 22.7109 44.6956C23.0417 46.1438 22.1372 47.5862 20.6908 47.9173Z" fill="#F1F2F2"/>
<path d="M21.7424 46.1384C21.5154 47.1046 20.549 47.7036 19.584 47.4763C18.619 47.249 18.0207 46.2815 18.2477 45.3153C18.4748 44.3492 19.4411 43.7502 20.4062 43.9775C21.3712 44.2048 21.9695 45.1723 21.7424 46.1384Z" fill="black"/>
<path d="M18.7976 43.6445C18.3411 43.6445 17.9722 44.0139 17.9722 44.4709C17.9722 44.9279 18.3411 45.2973 18.7976 45.2973C19.254 45.2973 19.623 44.9279 19.623 44.4709C19.623 44.0139 19.2517 43.6445 18.7976 43.6445Z" fill="white"/>
<path d="M22.7053 65.5786C22.3701 67.0259 20.9265 67.927 19.4809 67.5914C18.0354 67.2558 17.1353 65.8106 17.4705 64.3633C17.8057 62.916 19.2492 62.0149 20.6948 62.3504C22.1404 62.686 23.0405 64.1313 22.7053 65.5786Z" fill="#F1F2F2"/>
<path d="M21.0603 65.9791C20.2628 66.5688 19.1388 66.3996 18.5499 65.6011C17.9609 64.8027 18.1299 63.6774 18.9274 63.0877C19.7249 62.4981 20.8488 62.6673 21.4378 63.4657C22.0268 64.2641 21.8578 65.3894 21.0603 65.9791Z" fill="black"/>
<path d="M18.7976 66.6175C18.3411 66.6175 17.9722 66.2481 17.9722 65.7911C17.9722 65.3341 18.3411 64.9647 18.7976 64.9647C19.254 64.9647 19.623 65.3341 19.623 65.7911C19.6206 66.2481 19.2517 66.6175 18.7976 66.6175Z" fill="white"/>
</svg>
