<svg width="59" height="42" viewBox="0 0 59 42" fill="none" xmlns="http://www.w3.org/2000/svg">
<path d="M29.1942 6.51074V10.994C34.8197 11.0419 40.0172 14.9486 42.5499 19.7284C41.4111 11.8836 44.3662 7.68221 29.1942 6.51074Z" fill="#9F9E9F"/>
<path d="M12.9998 37.0001C18.9434 37.0625 39.2062 37.0001 45.4998 37.0001H46.9998C46.9998 37.0001 45.8657 35.479 45.7224 32.4177C45.6257 30.4137 44.7529 27.4758 44.1593 25.6818C44.1704 26.4959 44.083 27.3008 43.8913 28.0873C43.8913 28.0873 41.0944 32.6627 39.0418 34.1473C36.9892 35.6318 36.9998 37.0001 36.9998 37.0001L36.0904 35.013L35.4998 37.0001H33.9998L24.4998 37.0274L22.9998 37.0278L22.3011 35.013L21.4023 37.0851C21.4023 37.0851 21.4023 35.6318 19.3497 34.1473C17.2971 32.6627 14.5002 28.0873 14.5002 28.0873C14.3066 27.3008 14.221 26.4941 14.2322 25.6818C13.6386 27.4776 12.7658 30.4155 12.669 32.4177C12.5257 35.479 11.4998 37.0001 11.4998 37.0001H12.9998Z" fill="#F1F2F2"/>
<path d="M14.2304 25.6798C14.2192 26.4939 14.3067 27.2989 14.4984 28.0854C14.4984 28.0854 17.2953 32.6607 19.3479 34.1453C21.4005 35.6299 21.4005 37.0832 21.4005 37.0832L22.2993 35.011L22.9115 37.8549L24.4617 37.0832L26.0341 39.0909L26.7171 38.3486L29.1939 41.1317L31.6708 38.3486L32.3538 39.0909L33.9262 37.0832L35.4764 37.8549L36.0886 35.011L36.9874 37.0832C36.9874 37.0832 36.9874 35.6299 39.04 34.1453C41.0926 32.6607 43.8895 28.0854 43.8895 28.0854C44.083 27.2989 44.1686 26.4921 44.1575 25.6798C43.8449 24.7294 43.6085 24.1013 43.6085 24.1013C43.0595 22.5338 42.7413 21.0768 42.5478 19.7286C40.0151 14.9488 34.8195 11.0402 29.1921 10.9941C23.5666 11.042 18.3691 14.9488 15.8364 19.7286C15.6428 21.0768 15.3265 22.5338 14.7757 24.1013C14.7794 24.1013 14.543 24.7294 14.2304 25.6798Z" fill="#D1D3D4"/>
<path d="M44.1593 25.6796C44.1444 23.683 43.5582 21.6366 42.5496 19.7302C42.7432 21.0785 43.0595 22.5355 43.6103 24.1029C43.6103 24.1011 43.8467 24.7292 44.1593 25.6796Z" fill="#9F9E9F"/>
<path d="M29.1938 6.51074V10.994C23.5683 11.0419 18.3708 14.9486 15.8381 19.7284C16.9789 11.8836 14.0237 7.68221 29.1938 6.51074Z" fill="#9F9E9F"/>
<path d="M14.23 25.6796C14.2449 23.683 14.8311 21.6366 15.8397 19.7302C15.6462 21.0785 15.3298 22.5355 14.779 24.1029C14.779 24.1011 14.5427 24.7292 14.23 25.6796Z" fill="#9F9E9F"/>
<path d="M27.2453 14.9563C26.7205 18.548 19.0182 24.1198 10.4394 22.9521C9.64111 22.8416 8.91722 22.6389 8.25661 22.359C6.87581 21.9151 5.81137 21.0199 4.39895 20.0087C2.98652 18.9975 2.23286 19.7747 2.23286 19.7747C2.00955 18.5628 2.71855 17.36 2.75577 17.2955C2.0784 17.8536 0.723661 17.2937 0.723661 17.2937C1.70808 16.6637 1.57782 14.5529 1.57782 14.5529L0.528269 15.0926C0.528269 12.4163 1.32845 11.6077 1.3787 11.5598L0.00535583 12.3278C0.0816517 12.1823 2.59387 7.53332 4.53293 6.6713H3.74577C3.74577 6.6713 6.14634 2.16042 12.2482 1.55075C18.3483 0.941069 22.9149 4.91963 24.359 6.94022C24.8335 7.60515 25.7063 8.55927 26.5605 9.25552C27.1932 11.208 27.4872 13.3059 27.2453 14.9563Z" fill="#9F9E9F"/>
<path d="M19.4895 11.9243C19.4895 11.9243 20.1632 9.43214 17.9171 7.40971C15.671 5.38912 10.131 5.18651 8.0338 7.40971C5.93656 9.63291 5.86213 13.0699 5.86213 13.0699L6.90981 12.7679C6.90981 12.7679 7.05869 14.4182 5.86213 14.9561C5.86213 14.9561 6.83538 15.6965 8.33341 14.9561C8.33341 14.9561 7.43459 15.8991 7.7342 17.113C7.7342 17.113 8.85818 16.6414 9.38109 16.6414C9.38109 16.6414 8.48228 18.8646 10.5051 19.7414C10.5051 19.7414 9.83144 19.0691 11.6272 17.9897C11.6272 17.9897 12.3009 18.4613 11.8524 19.3362C11.8524 19.3362 14.2697 19.4927 15.3062 18.5055C15.3062 18.5055 15.7454 19.4706 14.9954 20.1448C14.9954 20.1448 18.9629 18.4594 19.2625 16.6414C19.564 14.8216 19.4895 11.9243 19.4895 11.9243Z" fill="#707071"/>
<path d="M26.5569 9.25351C25.7027 8.55726 24.8318 7.60314 24.3554 6.9382C22.9114 4.91761 18.3447 0.939055 12.2447 1.54873C6.14088 2.15841 3.74217 6.66928 3.74217 6.66928H4.52934C2.59214 7.5313 0.0780487 12.1803 0.00175095 12.3258C-0.000108719 12.3277 -0.000104904 12.3277 -0.000104904 12.3277C0.262281 10.3734 2.03573 7.76707 2.03573 7.76707H0.547001C1.07178 7.67866 1.95942 6.77243 2.71681 5.89199C3.47234 5.01155 4.09761 4.15137 4.09761 4.15137C6.37722 0.526465 11.2249 -0.20478 14.9039 0.0438799C18.929 0.312801 23.2407 3.9064 23.2407 3.9064C24.6011 4.84946 25.8144 6.9511 26.5569 9.25351Z" fill="#B7B7B7"/>
<path d="M31.7541 14.956C32.2788 18.5478 39.9811 24.1196 48.5599 22.9518C49.3582 22.8413 50.0821 22.6387 50.7427 22.3587C52.1235 21.9148 53.188 21.0197 54.6004 20.0084C56.0128 18.9972 56.7665 19.7745 56.7665 19.7745C56.9898 18.5625 56.2808 17.3598 56.2436 17.2953C56.9209 17.8534 58.2757 17.2934 58.2757 17.2934C57.2931 16.6617 57.4234 14.5508 57.4234 14.5508L58.4729 15.0905C58.4729 12.4142 57.6727 11.6056 57.6225 11.5577L58.9958 12.3258C58.9196 12.1803 56.4073 7.53124 54.4683 6.66922H55.2554C55.2554 6.66922 52.8549 2.15835 46.753 1.54867C40.6529 0.938993 36.0862 4.91755 34.6422 6.93814C34.1677 7.60308 33.2949 8.5572 32.4407 9.25345C31.8062 11.2077 31.5121 13.3057 31.7541 14.956Z" fill="#9F9E9F"/>
<path d="M39.5108 11.9243C39.5108 11.9243 38.8371 9.43214 41.0832 7.40971C43.3294 5.38912 48.8693 5.18651 50.9665 7.40971C53.0637 9.63291 53.1382 13.0699 53.1382 13.0699L52.0905 12.7679C52.0905 12.7679 51.9416 14.4182 53.1382 14.9561C53.1382 14.9561 52.1649 15.6965 50.6669 14.9561C50.6669 14.9561 51.5657 15.8991 51.2661 17.113C51.2661 17.113 50.144 16.6414 49.6192 16.6414C49.6192 16.6414 50.518 18.8646 48.4971 19.7414C48.4971 19.7414 49.1707 19.0691 47.375 17.9897C47.375 17.9897 46.7013 18.4613 47.1498 19.3362C47.1498 19.3362 44.7325 19.4927 43.696 18.5055C43.696 18.5055 43.2568 19.4706 44.0067 20.1448C44.0067 20.1448 40.0393 18.4594 39.7397 16.6414C39.4363 14.8216 39.5108 11.9243 39.5108 11.9243Z" fill="#707071"/>
<path d="M32.443 9.25436C33.2972 8.55811 34.1681 7.60399 34.6445 6.93906C36.0885 4.91663 40.6552 0.93991 46.7552 1.54775C52.859 2.15742 55.2577 6.6683 55.2577 6.6683H54.4706C56.4078 7.53216 58.9218 12.1812 58.9981 12.3267C59 12.3285 59 12.3285 59 12.3285C58.7376 10.3743 56.9642 7.76793 56.9642 7.76793H58.4529C57.9281 7.67951 57.0405 6.77329 56.2831 5.89285C55.5276 5.01241 54.9023 4.15223 54.9023 4.15223C52.6245 0.527319 47.7769 -0.203926 44.0979 0.0447344C40.0727 0.313655 35.761 3.90725 35.761 3.90725C34.3988 4.85032 33.1855 6.95195 32.443 9.25436Z" fill="#B7B7B7"/>
<path d="M13.0558 26.0259C13.0558 26.0278 13.0558 26.0315 13.0558 26.0315C13.2996 27.389 13.7164 28.6452 14.3398 29.7135C17.5685 35.2503 24.6735 34.9924 29.1955 34.9924C33.7175 34.9924 40.8224 35.2503 44.0511 29.7135C44.6745 28.6452 45.0932 27.389 45.3351 26.0315C45.3351 26.0315 45.3351 26.0296 45.3351 26.0259C45.309 25.6318 43.904 5.7666 29.1955 5.7666C14.4869 5.7666 13.0819 25.6318 13.0558 26.0259Z" fill="#9F9E9F"/>
<path d="M26.481 29.9882C27.1156 30.8336 28.4554 30.8336 29.1961 30.8336C29.9367 30.8336 31.2766 30.8336 31.9111 29.9882C32.5457 29.1427 32.462 25.7867 31.9111 23.954C31.0644 21.134 29.1961 21.134 29.1961 21.134C29.1961 21.134 27.3277 21.134 26.481 23.954C25.932 25.7867 25.8464 29.1409 26.481 29.9882Z" fill="black"/>
<path d="M13.0563 26.0261C13.0824 25.6319 14.4874 5.76674 29.196 5.76674C43.9046 5.76674 45.3095 25.6319 45.3356 26.0261C46.3479 20.364 44.3251 12.3074 41.597 9.13746C37.3542 4.2011 29.196 4.22137 29.196 4.22137C29.196 4.22137 20.9931 3.91929 16.7521 8.85565C14.024 12.0256 12.044 20.364 13.0563 26.0261Z" fill="#B7B7B7"/>
<path d="M29.1953 28.6027C30.8869 28.6027 31.4694 27.621 30.7752 24.8489C30.0811 22.0786 29.1953 22.0786 29.1953 22.0786C29.1953 22.0786 28.3095 22.0786 27.6154 24.8489C26.9213 27.621 27.5038 28.6027 29.1953 28.6027Z" fill="#1F2328"/>
<path d="M37.8417 23.3903C36.5354 23.3903 35.4765 22.3422 35.4765 21.0492C35.4765 19.7563 36.5354 18.7081 37.8417 18.7081C39.148 18.7081 40.2069 19.7563 40.2069 21.0492C40.2069 22.3422 39.148 23.3903 37.8417 23.3903Z" fill="#F1F2F2"/>
<path d="M36.9636 22.4511C36.1352 22.1801 35.6855 21.2956 35.9593 20.4756C36.2331 19.6555 37.1267 19.2104 37.9552 19.4814C38.7837 19.7525 39.2334 20.6369 38.9595 21.457C38.6857 22.277 37.7921 22.7221 36.9636 22.4511Z" fill="black"/>
<path d="M39.2933 19.9221C39.2933 19.5261 38.9677 19.2037 38.5676 19.2037C38.1675 19.2037 37.8418 19.5261 37.8418 19.9221C37.8418 20.3181 38.1675 20.6404 38.5676 20.6404C38.9677 20.6404 39.2933 20.3199 39.2933 19.9221Z" fill="white"/>
<path d="M18.2631 21.6415C17.9325 20.3907 18.6889 19.1114 19.9526 18.7842C21.2163 18.4569 22.5087 19.2056 22.8394 20.4564C23.17 21.7072 22.4136 22.9865 21.1499 23.3137C19.8862 23.641 18.5938 22.8923 18.2631 21.6415Z" fill="#F1F2F2"/>
<path d="M19.3707 21.2169C19.2315 20.3643 19.817 19.5615 20.6784 19.4237C21.5398 19.286 22.3509 19.8655 22.4901 20.7181C22.6292 21.5707 22.0438 22.3735 21.1824 22.5113C20.321 22.649 19.5099 22.0695 19.3707 21.2169Z" fill="black"/>
<path d="M19.0986 19.9221C19.0986 19.5261 19.4242 19.2037 19.8243 19.2037C20.2244 19.2037 20.55 19.5261 20.55 19.9221C20.55 20.3181 20.2244 20.6404 19.8243 20.6404C19.4242 20.6404 19.0986 20.3199 19.0986 19.9221Z" fill="white"/>
</svg>
