<svg width="78" height="60" viewBox="0 0 78 60" fill="none" xmlns="http://www.w3.org/2000/svg">
<path d="M77.2699 21.4407C73.0881 20.7489 69.9245 20.3985 69.6032 20.4339C68.1759 20.5808 61.1148 23.0934 54.5032 23.2686C47.8933 23.442 40.9481 16.7516 40.9481 16.7516C31.9857 10.6947 25.4443 11.0203 20.9271 14.653C21.6346 12.0519 22.8495 9.51976 24.3611 7.48486C27.5265 9.24195 32.2491 10.8433 37.7985 12.0395C37.7985 12.0395 60.4178 17.2223 71.724 12.2678C72.7229 11.8289 73.9044 11.3158 75.1913 10.7425C76.8187 14.2566 77.4262 18.1831 77.2699 21.4407Z" fill="#9F9E9F"/>
<path d="M77.2694 21.4405C77.2097 22.7057 77.0341 23.87 76.7585 24.8733C74.8168 31.9141 65.7578 28.8051 53.6827 28.8051C41.6076 28.8051 29.7344 28.8051 29.7344 28.8051C20.7194 28.8051 19.0673 21.4936 20.9283 14.6546C25.4455 11.0236 31.9869 10.6963 40.9493 16.7532C40.9493 16.7532 47.8945 23.4436 54.5043 23.2702C61.116 23.0932 68.177 20.5823 69.6044 20.4355C69.9239 20.3983 73.0875 20.7487 77.2694 21.4405Z" fill="#7F7F7F"/>
<path d="M75.1927 10.7424C73.9059 11.3157 72.7244 11.8288 71.7254 12.2677C60.4193 17.2222 37.8 12.0394 37.8 12.0394C32.2505 10.8432 27.5279 9.24186 24.3625 7.48477C26.6712 4.37403 29.6715 2.42407 32.6069 3.16194C42.5173 5.65159 49.3607 0.21222 62.5225 1.45085C68.9902 2.06132 73.0088 6.03026 75.1927 10.7424Z" fill="#B7B7B7"/>
<path d="M52.0473 26.4179C51.8717 30.6186 49.7949 35.9978 48.7836 38.8396C47.0175 43.7959 46.6365 47.8869 46.3749 50.3642C46.3065 51.0012 46.2766 51.7922 46.2415 52.622C45.3356 53.3988 44.3419 54.0235 43.257 54.4446C43.0761 53.6855 42.9831 53.091 42.9831 53.091C42.9831 53.091 42.9936 53.7032 42.9708 54.5525C41.9473 54.9135 40.8518 55.0975 39.6755 55.0657C39.5948 54.3437 39.5912 53.8341 39.5912 53.8341C39.5912 53.8341 39.5473 54.3544 39.442 55.0551C39.1348 55.0427 38.8205 55.0144 38.5028 54.9701C37.5512 54.8374 36.7805 54.4269 36.159 53.866C36.0256 52.6911 35.9817 51.7674 35.9817 51.7674C35.9817 51.7674 35.9817 51.7674 34.9635 52.3372C34.6843 51.8452 34.4596 51.3286 34.2805 50.8278C34.8985 49.6422 35.8307 48.2143 36.5874 47.3048C38.2359 45.323 36.5031 31.4432 37.6969 25.9897C38.4852 22.3941 42.732 21.1643 45.5322 20.7432C44.6913 21.8066 42.1263 25.6411 41.9806 32.9862C41.8086 41.7769 39.2963 47.0057 42.969 47.4906C46.6435 47.9754 45.5129 37.5019 48.7713 32.1138C50.4234 29.3853 51.5118 27.86 52.0473 26.4179Z" fill="#7F7F7F"/>
<path d="M34.2802 50.8301C34.461 51.3308 34.684 51.8475 34.9631 52.3394C34.7577 52.4562 34.5119 52.5942 34.2135 52.7606C33.2566 53.2985 33.5498 52.2333 34.2802 50.8301Z" fill="black"/>
<path d="M38.5021 54.9722C38.8199 55.0164 39.1342 55.0465 39.4414 55.0571C39.2097 56.6479 38.6795 59.1694 37.6963 58.7093C36.8255 58.3024 36.3761 55.7596 36.1602 53.868C36.7799 54.429 37.5488 54.8377 38.5021 54.9722Z" fill="black"/>
<path d="M42.9688 54.5527C42.9056 56.708 42.6194 60.3902 41.3659 59.4117C40.2265 58.5217 39.8192 56.4178 39.6718 55.0659C40.8498 55.0977 41.947 54.9137 42.9688 54.5527Z" fill="black"/>
<path d="M46.241 52.6224C46.1427 55.0112 46.0303 57.6778 45.0384 57.6778C44.1834 57.6778 43.5795 55.7986 43.2565 54.445C44.3414 54.0239 45.3351 53.401 46.241 52.6224Z" fill="black"/>
<path d="M77.2957 21.9911C77.2747 23.9446 76.3618 26.6643 74.9081 30.1731C71.4776 38.4738 74.7642 44.3378 69.3288 47.4361C64.8976 49.9612 63.3193 49.9134 62.424 51.3644C60.7456 51.1804 59.7291 50.8176 59.1234 50.4071C59.8116 49.034 60.9686 47.491 62.1782 45.7764C64.7501 42.1242 60.4612 36.5928 61.3197 27.6994C61.4268 26.5811 61.6691 25.5937 62.0114 24.7232C61.6884 27.1243 62.0219 30.1484 64.5921 32.7389C69.8098 37.9978 71.202 30.0794 73.6388 26.5882C74.6184 25.1797 76.13 23.7464 77.2957 21.9911Z" fill="#7F7F7F"/>
<path d="M62.4263 51.3626C62.2226 51.6934 62.0523 52.1022 61.8943 52.633C61.0358 55.5102 61.0358 56.5064 59.1573 54.4025C58.1601 53.2877 58.348 51.9571 59.1257 50.4053C59.7314 50.8158 60.7479 51.1785 62.4263 51.3626Z" fill="black"/>
<path d="M52.0466 26.4183C51.5111 27.8604 50.4244 29.3857 48.7723 32.1178C45.5139 37.5058 46.6428 47.9794 42.97 47.4945C39.2955 47.0097 41.8096 41.7809 41.9816 32.9901C42.1273 25.645 44.6923 21.8106 45.5332 20.7471C46.9781 20.5312 48.0385 20.5277 48.0385 20.5277C51.253 20.8037 52.1782 23.2828 52.0466 26.4183Z" fill="#9F9E9F"/>
<path d="M77.2958 21.9911C76.13 23.7482 74.6185 25.1814 73.6406 26.5846C71.2038 30.0776 69.8133 37.996 64.5939 32.7353C62.0237 30.1448 61.6901 27.1208 62.0132 24.7196C64.3727 18.6662 71.4777 18.2132 71.4777 18.2132C75.6859 18.0823 77.3239 19.3209 77.2958 21.9911Z" fill="#9F9E9F"/>
<path d="M31.808 14.1485C32.3347 16.9637 40.0488 21.3308 48.6425 20.416C49.4431 20.3293 50.1682 20.1718 50.8283 19.9506C52.2117 19.602 53.2774 18.9013 54.6924 18.1086C56.1074 17.3158 56.8623 17.9245 56.8623 17.9245C57.0853 16.9743 56.376 16.0312 56.3391 15.9817C57.0186 16.4187 58.3756 15.9799 58.3756 15.9799C57.389 15.4862 57.5207 13.8317 57.5207 13.8317L58.5723 14.2547C58.5723 12.1578 57.77 11.5226 57.7208 11.4854L59.0972 12.087C59.0217 11.9738 56.5042 8.32868 54.5625 7.65274H55.3507C55.3507 7.65274 52.9473 4.11555 46.8325 3.63957C40.7212 3.16181 36.1479 6.27962 34.7012 7.86507C34.2255 8.38707 33.3512 9.13556 32.4962 9.68056C31.8607 11.2112 31.5657 12.8568 31.808 14.1485Z" fill="#9F9E9F"/>
<path d="M39.577 11.7719C39.577 11.7719 38.9029 9.81839 41.1518 8.23294C43.4025 6.64925 48.952 6.49 51.0517 8.23294C53.1514 9.97587 53.2269 12.669 53.2269 12.669L52.177 12.4319C52.177 12.4319 52.0278 13.7254 53.2269 14.1465C53.2269 14.1465 52.2525 14.7269 50.7515 14.1465C50.7515 14.1465 51.6521 14.8862 51.3519 15.8364C51.3519 15.8364 50.2265 15.4666 49.7016 15.4666C49.7016 15.4666 50.6022 17.2095 48.5763 17.896C48.5763 17.896 49.2504 17.3687 47.4509 16.5229C47.4509 16.5229 46.7768 16.891 47.2262 17.5775C47.2262 17.5775 44.8052 17.7014 43.7659 16.9264C43.7659 16.9264 43.327 17.6837 44.0766 18.211C44.0766 18.211 40.1019 16.891 39.8017 15.4648C39.5033 14.0439 39.577 11.7719 39.577 11.7719Z" fill="#707071"/>
<path d="M32.4963 9.67873C33.3513 9.13373 34.2239 8.38525 34.7014 7.86325C36.148 6.27957 40.7231 3.15998 46.8327 3.63774C52.9457 4.1155 55.3509 7.65091 55.3509 7.65091H54.5626C56.5043 8.32685 59.0219 11.9702 59.0974 12.0852C59.1009 12.087 59.1009 12.087 59.1009 12.087C58.8375 10.5546 57.0626 8.51265 57.0626 8.51265H58.5549C58.0282 8.44364 57.1399 7.73231 56.3814 7.04221C55.623 6.35212 54.998 5.67795 54.998 5.67795C52.714 2.83617 47.8597 2.26463 44.1729 2.45927C40.1403 2.66984 35.8215 5.48685 35.8215 5.48685C34.4556 6.22649 33.2407 7.87564 32.4963 9.67873Z" fill="#B7B7B7"/>
<path d="M27.2907 14.1485C26.764 16.9637 19.0498 21.3308 10.4561 20.416C9.65733 20.3293 8.9305 20.1718 8.27039 19.9506C6.88697 19.602 5.82132 18.9013 4.40629 18.1086C2.99127 17.3158 2.23636 17.9245 2.23636 17.9245C2.0134 16.9743 2.72266 16.0312 2.75953 15.9817C2.08011 16.4187 0.723021 15.9799 0.723021 15.9799C1.70967 15.4862 1.578 13.8317 1.578 13.8317L0.526392 14.2547C0.526392 12.1578 1.32871 11.5226 1.37786 11.4854L0.00146484 12.087C0.0769561 11.9738 2.5945 8.32868 4.53621 7.65274H3.74618C3.74618 7.65274 6.14961 4.11555 12.2644 3.63957C18.3757 3.16181 22.9491 6.27962 24.3957 7.86507C24.8715 8.38707 25.7457 9.13556 26.6007 9.68056C27.238 11.2112 27.533 12.8568 27.2907 14.1485Z" fill="#9F9E9F"/>
<path d="M19.5207 11.7719C19.5207 11.7719 20.1949 9.81839 17.9459 8.23294C15.6952 6.64925 10.1458 6.49 8.04605 8.23294C5.94634 9.97587 5.87085 12.669 5.87085 12.669L6.9207 12.4319C6.9207 12.4319 7.06993 13.7254 5.87085 14.1465C5.87085 14.1465 6.84521 14.7269 8.34626 14.1465C8.34626 14.1465 7.44563 14.8862 7.74584 15.8364C7.74584 15.8364 8.87119 15.4666 9.39612 15.4666C9.39612 15.4666 8.49549 17.2095 10.5215 17.896C10.5215 17.896 9.84731 17.3687 11.6468 16.5229C11.6468 16.5229 12.321 16.891 11.8715 17.5775C11.8715 17.5775 14.2925 17.7014 15.3318 16.9264C15.3318 16.9264 15.7707 17.6837 15.0211 18.211C15.0211 18.211 18.9958 16.891 19.296 15.4648C19.5962 14.0439 19.5207 11.7719 19.5207 11.7719Z" fill="#707071"/>
<path d="M26.601 9.67873C25.746 9.13373 24.8735 8.38525 24.396 7.86325C22.9494 6.27957 18.3742 3.15998 12.2647 3.63774C6.15166 4.1155 3.74647 7.65091 3.74647 7.65091H4.5365C2.59479 8.32685 0.0772473 11.9702 0.00175599 12.0852C3.75078e-07 12.087 0 12.087 0 12.087C0.263342 10.5546 2.03826 8.51265 2.03826 8.51265H0.545995C1.07268 8.44364 1.96102 7.73231 2.71944 7.04221C3.47787 6.35212 4.10286 5.67795 4.10286 5.67795C6.38691 2.83617 11.2412 2.26463 14.928 2.45927C18.9606 2.66984 23.2794 5.48685 23.2794 5.48685C24.6418 6.22649 25.8566 7.87564 26.601 9.67873Z" fill="#B7B7B7"/>
<path d="M44.4225 20.4336C44.4225 20.4354 44.4225 20.4389 44.4225 20.4389C44.1785 21.7112 43.7606 22.8879 43.1356 23.8894C39.9 29.0775 32.7845 28.8351 28.2551 28.8351C23.7256 28.8351 16.6101 29.0757 13.3745 23.8894C12.7513 22.8879 12.3317 21.7112 12.0876 20.4389C12.0876 20.4389 12.0876 20.4372 12.0876 20.4336C12.114 20.0638 13.522 1.45068 28.2551 1.45068C42.9899 1.45068 44.3979 20.0656 44.4225 20.4336Z" fill="#9F9E9F"/>
<path d="M30.9758 26.2854C30.3403 27.1489 28.999 27.1489 28.2564 27.1489C27.5137 27.1489 26.1724 27.1489 25.5369 26.2854C24.9014 25.4219 24.9857 21.9998 25.5369 20.1294C26.3849 17.254 28.2564 17.254 28.2564 17.254C28.2564 17.254 30.1278 17.254 30.9758 20.1294C31.5253 21.9998 31.6113 25.4219 30.9758 26.2854Z" fill="black"/>
<path d="M44.422 20.4337C44.3974 20.0657 42.9894 1.4508 28.2563 1.4508C13.5232 1.4508 12.1152 20.0657 12.0889 20.4337C11.0741 15.1289 13.1001 7.5785 15.8336 4.60931C20.0822 -0.0160964 28.2563 0.00336779 28.2563 0.00336779C28.2563 0.00336779 36.4726 -0.279748 40.7211 4.34566C43.4546 7.31661 45.4367 15.1289 44.422 20.4337Z" fill="#B7B7B7"/>
<path d="M28.2566 24.8716C26.5624 24.8716 25.9796 23.87 26.6748 21.0424C27.37 18.2166 28.2566 18.2166 28.2566 18.2166C28.2566 18.2166 29.1432 18.2166 29.8384 21.0424C30.5336 23.8718 29.949 24.8716 28.2566 24.8716Z" fill="#1F2328"/>
<path d="M22.8915 18.2165C22.8915 18.2165 23.1689 16.9796 19.6155 16.4859C16.0621 15.9923 14.6278 17.0433 16.1921 17.5706C17.7581 18.0962 23.1987 20.8353 22.8915 18.2165Z" fill="#707071"/>
<path d="M33.6203 18.2165C33.6203 18.2165 33.3429 16.9796 36.8963 16.4859C40.4496 15.9923 41.884 17.0433 40.3197 17.5706C38.7537 18.0962 33.3131 20.8353 33.6203 18.2165Z" fill="#707071"/>
</svg>
