<svg width="84" height="63" viewBox="0 0 84 63" fill="none" xmlns="http://www.w3.org/2000/svg">
<path d="M52.3747 42.1087C52.3747 42.1087 49.2444 49.0915 48.0396 51.6013C46.8348 54.1111 44.9487 58.2958 42.7022 59.1324C40.454 59.9689 39.7333 59.8497 39.7333 59.8497C39.7333 59.8497 42.021 58.6535 42.1411 57.0996C42.2612 55.5457 42.4674 53.2745 43.267 52.5571C44.0666 51.8398 45.3915 41.0817 46.0531 39.2892C46.7164 37.4968 53.8197 36.4413 52.3747 42.1087Z" fill="#636464"/>
<path d="M27.4522 40.4858C27.4522 40.4858 30.1003 46.8207 28.8973 50.8861C27.6925 54.9498 23.6532 57.6999 25.1915 59.1345C26.7297 60.5692 27.9596 59.147 29.211 59.8572C30.4624 60.5692 29.211 62.0021 29.211 62.0021C29.211 62.0021 29.0873 60.8113 27.307 61.2865C25.5267 61.7635 21.1916 62.0056 20.1087 61.2865C19.0258 60.5674 19.6264 56.9808 20.1087 55.1883C20.591 53.3959 21.9141 50.167 21.9141 50.167C21.9141 50.167 17.3388 45.6245 16.376 39.1704C15.4115 32.7162 25.0444 34.9874 27.4522 40.4858Z" fill="#636464"/>
<path d="M13.1236 29.1294C13.1236 30.4875 13.8533 33.2393 15.6999 36.0819C17.5573 35.6548 19.9759 35.6174 23.0363 36.1371C38.9675 38.8409 44.667 34.5085 44.667 34.5085C44.667 34.5085 47.437 34.8662 51.1679 35.2471C54.9006 35.6245 58.1636 30.1974 58.1636 30.1974C63.3342 28.9407 67.0221 28.809 69.5177 29.6331C69.2775 28.3284 68.7342 27.1198 67.9723 26.0037C67.9723 26.0037 67.9705 26.002 67.9651 25.9966C67.628 25.7101 55.7755 15.7636 33.2304 17.4136C22.3944 18.2075 16.6107 22.0843 13.5234 25.9486C13.2276 27.1981 13.1236 28.3177 13.1236 29.1294Z" fill="#9F9E9F"/>
<path d="M15.7004 36.0821C16.3906 37.1483 17.2387 38.227 18.2624 39.2505C19.1678 39.2879 20.0714 39.4534 20.9499 39.7685C32.2681 43.8321 45.1498 39.7685 45.1498 39.7685C45.1498 39.7685 48.8825 37.976 53.6066 37.3424C58.329 36.7087 62.7286 31.3795 62.7286 31.3795C64.9948 30.6835 67.5245 30.5482 69.6562 31.3884C69.6706 30.7867 69.6222 30.1993 69.5182 29.6333C67.0243 28.8092 63.3346 28.9391 58.1641 30.1976C58.1641 30.1976 54.9011 35.6247 51.1684 35.2473C47.4356 34.8664 44.6675 34.5086 44.6675 34.5086C44.6675 34.5086 38.968 38.8411 23.0367 36.1373C19.9781 35.6193 17.5578 35.6549 15.7004 36.0821Z" fill="#787878"/>
<path d="M18.264 39.2504C20.9192 41.9043 24.7613 44.1845 30.1435 44.9089C43.147 46.6622 54.0619 44.5903 57.1133 42.6786C60.1611 40.7669 68.8314 35.0496 68.8314 35.0496C69.3692 33.7592 69.6292 32.5399 69.6597 31.39C67.528 30.5481 64.9983 30.6852 62.7321 31.3811C62.7321 31.3811 58.3324 36.7104 53.6101 37.344C48.8859 37.9777 45.1532 39.7701 45.1532 39.7701C45.1532 39.7701 32.2698 43.8338 20.9533 39.7701C20.0712 39.4533 19.1694 39.2878 18.264 39.2504Z" fill="#E6E7E8"/>
<path d="M13.5236 25.9503C16.6109 22.0878 22.3947 18.2092 33.2307 17.4153C55.7775 15.7653 67.6283 25.7118 67.9653 25.9984C64.7866 21.3509 57.7694 18.3178 52.7763 16.5983C45.0706 13.9497 31.4252 14.6261 23.0759 16.326C16.8601 17.5933 14.3806 22.3103 13.5236 25.9503Z" fill="#B7B7B7"/>
<path d="M46.7253 40.605C48.1829 43.1147 53.0971 50.765 56.7706 50.4073C60.342 50.0584 59.4994 46.5412 59.4492 46.3436C59.4474 46.3365 59.4474 46.3347 59.4474 46.3347C59.1175 45.4287 58.836 44.7025 58.6262 44.2717C57.4555 41.8812 53.6654 35.0514 53.6654 35.0514C51.6072 31.2957 47.1233 30.5997 44.8105 32.1643C43.6308 34.7168 45.2713 38.0952 46.7253 40.605Z" fill="#9F9E9F"/>
<path d="M-8.96454e-05 55.309C-8.96454e-05 55.309 2.76986 56.0264 4.33502 55.309C5.90018 54.5917 6.0203 52.4397 7.58546 51.6031C9.15062 50.7665 15.0509 50.2877 17.6989 49.8107C20.347 49.3319 23.7193 43.8335 24.9223 38.693C25.4673 36.3683 25.0998 34.4104 24.5351 32.9633C24.5351 32.9633 23.7193 41.6816 19.7464 44.9104C15.7734 48.1375 8.18785 49.2144 6.26233 49.6914C4.33681 50.1702 5.05754 53.5433 2.89178 53.8299C2.52962 54.6166 -8.96454e-05 55.309 -8.96454e-05 55.309Z" fill="#787878"/>
<path d="M48.1366 46.5819C51.4265 51.7225 57.1277 58.0574 58.4437 59.7306C59.7614 61.4037 59.3204 61.2845 63.4888 61.2845C67.6554 61.2845 67.2161 60.5672 68.2775 60.0883C69.3371 59.6095 70.0667 61.2845 70.0667 61.2845C70.9435 58.7747 68.8602 57.9381 67.7163 58.4561C66.5725 58.9723 65.6438 58.6145 64.4193 58.4561C63.4153 58.3244 60.9501 50.4836 59.4495 46.3416C59.4997 46.5392 60.3423 50.0564 56.771 50.4053C53.0956 50.7631 48.1814 43.1128 46.7256 40.603C45.2716 38.0932 43.6312 34.7149 44.8109 32.1588C44.1852 32.5824 43.7208 33.1698 43.5039 33.9085C42.4909 37.3777 44.8485 41.4431 48.1366 46.5819Z" fill="#787878"/>
<path d="M2.89016 53.8282C5.05771 53.5416 4.33519 50.1685 6.26072 49.6897C8.18624 49.2109 15.7718 48.1358 19.7447 44.9087C23.7177 41.6816 24.5334 32.9616 24.5334 32.9616C23.8504 31.2047 22.8751 30.1973 22.8751 30.1973C21.6057 28.3105 17.3369 27.8139 14.2066 30.1973C11.0763 32.5824 14.4469 42.9116 14.4469 42.9116C10.8343 43.3085 6.62108 47.2992 4.81568 47.9988C3.01028 48.6983 3.25232 53.0379 2.89016 53.8282Z" fill="#9F9E9F"/>
<path d="M64.4871 18.1594C64.4871 18.1594 60.5949 23.9425 60.5949 27.0842C60.5949 30.2276 66.4933 34.1827 74.5414 32.6003C82.5913 31.0197 79.6439 27.5915 79.6439 27.5915C79.6439 27.5915 80.7089 27.4865 82.0087 27.6235C81.7989 27.1429 81.5712 26.5377 81.3256 25.7973C81.3256 25.7973 75.4988 11.1748 64.8188 11.1267C61.9628 11.1143 59.6984 10.7405 58.1656 10.1709C55.7362 11.5005 54.4095 13.8074 53.8842 16.4382C58.6263 14.3236 63.5925 14.4589 64.4871 18.1594Z" fill="#9F9E9F"/>
<path d="M58.1654 10.1709C59.6982 10.7405 61.9626 11.1143 64.8186 11.1267C75.4986 11.1748 81.3254 25.7973 81.3254 25.7973C81.7019 26.9364 82.0372 27.757 82.3384 28.2981C82.7651 25.0105 80.1511 17.7464 76.2947 13.77C72.1496 9.49806 66.0933 9.18122 66.0933 9.18122C62.6672 8.69351 60.073 9.12961 58.1654 10.1709Z" fill="#B7B7B7"/>
<path d="M55.0961 26.7461C58.1242 34.0262 63.7035 36.5573 70.7172 35.1333C77.7308 33.7093 81.2376 31.8101 82.1932 28.9621C82.2595 28.7663 82.3079 28.5403 82.3402 28.2982C82.2326 28.1078 82.1233 27.8835 82.0121 27.6236C82.0085 27.6236 82.0085 27.6236 82.0085 27.6236C80.7087 27.4883 79.6438 27.5916 79.6438 27.5916C79.6438 27.5916 82.5912 31.0198 74.5431 32.6022C66.4932 34.1846 60.5965 30.2277 60.5965 27.0861C60.5965 23.9426 64.4888 18.1613 64.4888 18.1613C63.5924 14.4607 58.6262 14.3254 53.8859 16.44C53.2064 19.806 53.8303 23.7041 55.0961 26.7461Z" fill="#787878"/>
<path d="M53.6044 22.248C61.1594 22.0575 64.7846 19.0743 65.7599 15.719V15.7101C65.7599 15.7101 65.378 8.62761 62.4288 5.22431V7.20185C62.4288 7.20185 61.2329 4.98579 57.4877 2.69141L58.1672 4.74905C58.1672 4.74905 46.917 0.486022 43.075 7.12532C41.3986 12.9316 45.472 22.4509 53.6044 22.248Z" fill="#9F9E9F"/>
<path d="M61.8891 13.8447C61.8891 13.8447 60.5875 9.01739 57.5917 7.32286C54.5958 5.62833 47.3921 5.45923 46.7879 10.4396C46.1837 15.4199 50.223 18.3088 52.448 18.154C54.6747 17.9991 50.5762 16.5396 50.3969 14.0138C50.2177 11.488 56.4299 11.2121 57.0753 13.5474C57.7207 15.8827 54.9472 17.3441 56.7418 17.8549C58.5347 18.3622 62.8053 17.7464 61.8891 13.8447Z" fill="#707071"/>
<path d="M43.0754 7.12701C46.9174 0.485931 58.1676 4.75074 58.1676 4.75074L57.4881 2.6931C61.2334 4.98748 62.4292 7.20354 62.4292 7.20354V5.22422C65.3784 8.62574 65.7603 15.71 65.7603 15.71V15.7189C66.0687 14.6581 66.1135 13.5598 65.936 12.5025C65.936 12.5025 65.936 4.43213 60.0375 1.74081L60.9877 3.63114C60.8246 3.46382 58.1765 0.767168 54.7773 0L55.7311 2.05409C55.5554 1.98111 50.2288 -0.247416 45.0547 3.95688C44.0991 4.73294 43.4447 5.83831 43.0754 7.12701Z" fill="#B7B7B7"/>
<path d="M81.5659 23.0917C81.5659 23.0917 82.9374 24.4249 83.2565 26.3241C83.5757 28.2233 83.0862 30.0282 80.8344 31.0766C80.8344 31.0766 81.0262 29.4889 79.644 27.5897C78.2617 25.6904 81.5659 23.0917 81.5659 23.0917Z" fill="black"/>
<path d="M81.7955 24.1349C81.7955 24.1349 83.0702 25.9184 82.9914 27.0843C82.9125 28.2502 79.8395 28.0651 79.8037 26.5877C79.7678 25.1103 81.4764 23.1061 81.7955 24.1349Z" fill="#1F2328"/>
<path d="M70.5511 24.2899C70.3072 22.8044 71.3224 21.4039 72.8187 21.1617C74.3149 20.9196 75.7256 21.9275 75.9695 23.413C76.2134 24.8984 75.1982 26.299 73.702 26.5411C72.2057 26.7833 70.7951 25.7754 70.5511 24.2899Z" fill="#F1F2F2"/>
<path d="M73.5287 25.8097C72.4148 25.8097 71.5117 24.9132 71.5117 23.8073C71.5117 22.7013 72.4148 21.8048 73.5287 21.8048C74.6426 21.8048 75.5457 22.7013 75.5457 23.8073C75.5457 24.9132 74.6426 25.8097 73.5287 25.8097Z" fill="black"/>
<path d="M71.8198 22.2513C71.8198 21.8562 72.1425 21.5358 72.5405 21.5358C72.9385 21.5358 73.2612 21.8562 73.2612 22.2513C73.2612 22.6465 72.9385 22.9669 72.5405 22.9669C72.1425 22.9669 71.8198 22.6465 71.8198 22.2513Z" fill="white"/>
</svg>
