<svg width="45" height="39" viewBox="0 0 45 39" fill="none" xmlns="http://www.w3.org/2000/svg">
<path d="M45 23.3185C45 18.9628 42.5768 15.1646 39.0099 13.1934C38.5862 13.7134 38.0899 14.1709 37.5386 14.5546C40.8331 16.1028 43.125 19.4441 43.125 23.3179C43.125 24.581 41.31 25.6592 38.5555 26.2629C37.2068 22.0847 34.2774 18.6103 30.4667 16.5603C30.0185 17.0609 29.5254 17.5184 28.9917 17.9278C34.0167 20.3541 37.5005 25.486 37.5005 31.4299C37.5005 33.3061 34.9524 34.6724 33.1767 35.0705L30.0185 28.8411L30.7398 36.198C28.2473 36.7868 25.3416 37.0943 22.4997 37.0943C19.9928 37.0943 16.8134 36.8531 14.5333 36.3931L15.294 28.8411L12.082 35.3399C9.48263 34.5949 7.52948 32.9543 7.49948 31.4305C7.3826 25.4879 10.9833 20.3547 16.0083 17.9284C15.4746 17.519 14.9815 17.0615 14.5333 16.5609C10.7226 18.6109 7.79323 22.0854 6.44446 26.2635C3.68943 25.6598 1.87503 24.5816 1.87503 23.3185C1.87503 19.4447 4.16693 16.1034 7.46135 14.5553C6.9101 14.1709 6.41384 13.7134 5.99008 13.194C2.42316 15.1653 0 18.9628 0 23.3191C0 25.766 2.56316 27.3098 5.96508 28.0748C5.74508 29.1605 5.62508 30.2811 5.62508 31.4305C5.62508 36.6387 14.1008 38.97 22.5003 38.97C30.8998 38.97 39.3755 36.6393 39.3755 31.4305C39.3755 30.2811 39.2555 29.1598 39.0355 28.0748C42.4368 27.3086 45 25.7654 45 23.3185Z" fill="url(#paint0_linear)"/>
<path d="M11.5627 14.282C11.9915 14.282 12.4096 14.2339 12.8127 14.147C12.5333 13.5739 12.3027 12.9745 12.1277 12.3501C11.9415 12.3764 11.7558 12.4076 11.5627 12.4076C9.32267 12.4076 7.50015 10.5845 7.50015 8.34443C7.50015 6.1044 9.32267 4.28187 11.5627 4.28187C12.0371 4.28187 12.4858 4.37875 12.909 4.52938C13.2034 3.95562 13.5484 3.41436 13.9371 2.90623C13.209 2.58747 12.4071 2.40747 11.5627 2.40747C8.28891 2.40747 5.62512 5.07063 5.62512 8.34505C5.62512 11.6195 8.28828 14.282 11.5627 14.282Z" fill="url(#paint1_linear)"/>
<path d="M33.4375 4.28129C35.6775 4.28129 37.5001 6.10319 37.5001 8.34385C37.5001 10.5845 35.6775 12.407 33.4375 12.407C33.2438 12.407 33.0588 12.3764 32.8725 12.3495C32.6975 12.9739 32.4669 13.5733 32.1875 14.1464C32.5913 14.2333 33.0088 14.2814 33.4375 14.2814C36.7113 14.2814 39.3751 11.617 39.3751 8.34322C39.3751 5.06943 36.7113 2.40564 33.4375 2.40564C32.5931 2.40564 31.7906 2.58564 31.0631 2.9044C31.4512 3.41253 31.7969 3.95379 32.0912 4.52754C32.5144 4.37817 32.9631 4.28129 33.4375 4.28129Z" fill="url(#paint2_linear)"/>
<path d="M22.4998 17.4065C27.1523 17.4065 30.9374 13.6214 30.9374 8.96887C30.9374 4.3163 27.1523 0.53125 22.4998 0.53125C17.8472 0.53125 14.0621 4.3163 14.0621 8.96887C14.0621 13.6214 17.8478 17.4065 22.4998 17.4065ZM22.4998 2.40628C26.1186 2.40628 29.0623 5.35069 29.0623 8.96887C29.0623 12.587 26.1186 15.5315 22.4998 15.5315C18.881 15.5315 15.9372 12.587 15.9372 8.96887C15.9372 5.35069 18.8816 2.40628 22.4998 2.40628Z" fill="url(#paint3_linear)"/>
<defs>
<linearGradient id="paint0_linear" x1="22.5" y1="13.1934" x2="22.5" y2="38.97" gradientUnits="userSpaceOnUse">
<stop stop-color="#F95730"/>
<stop offset="1" stop-color="#F48A19"/>
</linearGradient>
<linearGradient id="paint1_linear" x1="9.78112" y1="2.40747" x2="9.78112" y2="14.282" gradientUnits="userSpaceOnUse">
<stop stop-color="#F95730"/>
<stop offset="1" stop-color="#F48A19"/>
</linearGradient>
<linearGradient id="paint2_linear" x1="35.2191" y1="2.40564" x2="35.2191" y2="14.2814" gradientUnits="userSpaceOnUse">
<stop stop-color="#F95730"/>
<stop offset="1" stop-color="#F48A19"/>
</linearGradient>
<linearGradient id="paint3_linear" x1="22.4998" y1="0.53125" x2="22.4998" y2="17.4065" gradientUnits="userSpaceOnUse">
<stop stop-color="#F95730"/>
<stop offset="1" stop-color="#F48A19"/>
</linearGradient>
</defs>
</svg>
