<svg width="24" height="21" viewBox="0 0 24 21" fill="none" xmlns="http://www.w3.org/2000/svg">
<path d="M1.26758 10.2092L6.54176 12.1777L8.58319 18.7429C8.71381 19.1634 9.22798 19.3188 9.56927 19.0398L12.5092 16.6431C12.8173 16.392 13.2563 16.3795 13.5783 16.6133L18.8809 20.4631C19.246 20.7284 19.7632 20.5284 19.8548 20.0872L23.7392 1.40253C23.8391 0.920628 23.3656 0.518613 22.9068 0.696083L1.2614 9.04622C0.727233 9.25222 0.731887 10.0085 1.26758 10.2092ZM8.25419 11.1298L18.5619 4.78131C18.7472 4.66755 18.9378 4.91804 18.7787 5.0656L10.2718 12.9731C9.97281 13.2515 9.77992 13.624 9.7253 14.0283L9.43551 16.1757C9.39714 16.4625 8.99436 16.4909 8.91524 16.2134L7.80075 12.2974C7.67311 11.8508 7.85912 11.3737 8.25419 11.1298Z" fill="#54A9EA"/>
</svg>
