<svg width="24" height="20" viewBox="0 0 24 20" fill="none" xmlns="http://www.w3.org/2000/svg">
<path d="M23.33 2.67357C22.4875 3.04687 21.5835 3.30004 20.6338 3.41306C21.6036 2.83234 22.3459 1.91123 22.6977 0.817022C21.7881 1.35481 20.7839 1.74531 19.7141 1.957C18.8573 1.04304 17.6387 0.473755 16.287 0.473755C13.6938 0.473755 11.5913 2.57633 11.5913 5.16807C11.5913 5.53565 11.6327 5.89466 11.7129 6.23796C7.81095 6.04198 4.35102 4.17257 2.03533 1.33192C1.63054 2.02421 1.40026 2.83088 1.40026 3.69196C1.40026 5.32111 2.22985 6.75859 3.48855 7.59958C2.71902 7.57385 1.99528 7.36216 1.36166 7.01029V7.06894C1.36166 9.34315 2.98079 11.2412 5.12769 11.6732C4.73434 11.779 4.31956 11.8376 3.89046 11.8376C3.58725 11.8376 3.29403 11.8076 3.00653 11.7504C3.60438 13.617 5.33796 14.9743 7.39191 15.0115C5.78565 16.2702 3.76031 17.0183 1.56049 17.0183C1.18147 17.0183 0.808129 16.9954 0.440552 16.9539C2.51882 18.2884 4.98612 19.0665 7.63793 19.0665C16.2756 19.0665 20.9971 11.912 20.9971 5.70732L20.9814 5.09944C21.9039 4.44144 22.702 3.61473 23.33 2.67357Z" fill="#0598FF"/>
</svg>
