<svg width="24" height="20" viewBox="0 0 24 20" fill="none" xmlns="http://www.w3.org/2000/svg">
<path d="M23.4665 3.01232C22.6241 3.38562 21.7201 3.63878 20.7704 3.75181C21.7402 3.17108 22.4825 2.24997 22.8343 1.15577C21.9247 1.69356 20.9205 2.08406 19.8507 2.29575C18.9939 1.38178 17.7753 0.8125 16.4236 0.8125C13.8304 0.8125 11.7279 2.91507 11.7279 5.50681C11.7279 5.87439 11.7693 6.2334 11.8494 6.57671C7.94755 6.38073 4.48761 4.51131 2.17193 1.67067C1.76714 2.36296 1.53686 3.16962 1.53686 4.03071C1.53686 5.65986 2.36645 7.09733 3.62515 7.93833C2.85562 7.9126 2.13187 7.70091 1.49826 7.34904V7.40768C1.49826 9.68189 3.11739 11.5799 5.26428 12.0119C4.87094 12.1177 4.45616 12.1764 4.02706 12.1764C3.72385 12.1764 3.43062 12.1464 3.14312 12.0891C3.74098 13.9557 5.47455 15.3131 7.5285 15.3503C5.92224 16.609 3.8969 17.357 1.69709 17.357C1.31806 17.357 0.944726 17.3341 0.577148 17.2927C2.65541 18.6272 5.12272 19.4053 7.77453 19.4053C16.4122 19.4053 21.1337 12.2508 21.1337 6.04606L21.118 5.43818C22.0405 4.78019 22.8386 3.95348 23.4665 3.01232Z" fill="white"/>
</svg>
