<svg width="1508" height="797" viewBox="0 0 1508 797" fill="none" xmlns="http://www.w3.org/2000/svg">
<path d="M1017.83 692.067C971.325 692.066 938.825 707.068 838.825 736.082C754.325 760.599 722.747 735.944 646.825 745.068C597.651 750.978 461.22 788.023 410.825 793.069C353.301 798.828 269.826 781.272 214.325 784.903C87.5186 793.2 -171.469 825.037 -207.445 724.537C-243.421 624.037 -137.006 627.506 -140.944 531.537C-144.63 441.724 -248.702 400.907 -245.946 323.037C-243.878 264.595 -119.445 212.003 -111.945 159.003C-104.445 106.003 -162.445 -12.4628 -21.6747 1.06861C83.0551 11.1357 200.277 80.6814 244.825 83.5689C307.987 87.6627 303.894 62.6061 376.325 69.569C458.943 77.5112 533.325 137.569 627.825 142.069C671.054 147.034 679.793 122.327 718.825 127.069C761.612 132.267 809.147 169.257 843.825 173.666C931.26 184.781 882.325 145.569 985.325 159.003C1088.33 172.436 1198.54 243.016 1186.33 271.045C1212.26 257.973 1180.54 236.983 1186.33 231.955C1204.2 226.927 1218.55 255.962 1202.32 271.045C1239.31 260.99 1221.32 287.385 1217.8 287.762C1281.6 279.09 1364.78 357.773 1325.14 360.412C1426.45 391.584 1481.69 490.252 1404.93 493.269C1446.58 507.347 1458.29 463.48 1443.31 447.643C1458.29 463.48 1457.66 448.02 1440.29 427.532C1506.49 455.561 1467.6 532.862 1408.2 523.31C1434.25 530.851 1471.63 511.62 1475.03 500.182C1479.43 524.818 1490.76 496.788 1488.62 483.716C1529.64 504.833 1499.19 560.389 1451.37 561.897C1498.56 563.908 1466.85 585.778 1462.57 584.396C1485.47 585.024 1481.44 565.542 1481.44 565.542C1503.47 572.958 1493.55 612.151 1429.23 601.102C1364.89 590.063 1200.18 622.354 1255.93 637.814C1215.28 633.163 1239.69 615.316 1239.69 615.316C1229.37 607.146 1202.06 634.923 1222.7 644.099C1245.36 656.291 1192.12 696.647 1136.88 679.427C1113.44 672.122 1088.46 680.266 1067.47 692.066L1017.83 692.067Z" fill="url(#paint0_linear)"/>
<defs>
<linearGradient id="paint0_linear" x1="1349.83" y1="504.568" x2="-182.672" y2="419.568" gradientUnits="userSpaceOnUse">
<stop stop-color="#E9EFF2"/>
<stop offset="1" stop-color="#CDDFE9"/>
</linearGradient>
</defs>
</svg>
