<svg width="23" height="21" viewBox="0 0 23 21" fill="none" xmlns="http://www.w3.org/2000/svg">
<g opacity="0.7">
<path d="M0.404295 10.5481L5.67848 12.5166L7.71991 19.0818C7.85053 19.5023 8.3647 19.6577 8.70598 19.3787L11.6459 16.982C11.9541 16.7309 12.393 16.7184 12.7151 16.9522L18.0176 20.802C18.3827 21.0673 18.8999 20.8673 18.9915 20.4261L22.8759 1.74139C22.9759 1.25949 22.5024 0.85748 22.0435 1.03495L0.398115 9.38509C-0.136048 9.59109 -0.131394 10.3474 0.404295 10.5481ZM7.39091 11.4687L17.6986 5.12018C17.8839 5.00642 18.0745 5.2569 17.9154 5.40446L9.40854 13.312C9.10952 13.5903 8.91664 13.9628 8.86201 14.3671L8.57223 16.5146C8.53386 16.8013 8.13108 16.8298 8.05196 16.5523L6.93747 12.6363C6.80982 12.1897 6.99584 11.7126 7.39091 11.4687Z" fill="white"/>
</g>
</svg>
