<svg width="24" height="23" viewBox="0 0 24 23" fill="none" xmlns="http://www.w3.org/2000/svg">
<g opacity="0.7">
<path d="M23.3308 10.9745C23.3308 17.0357 18.3005 21.949 12.0942 21.949C10.1239 21.949 8.2729 21.4534 6.6625 20.5835L0.441406 22.5293L2.46966 16.6411C1.44651 14.9875 0.857231 13.048 0.857231 10.9745C0.857231 4.91339 5.88807 0 12.0942 0C18.301 0 23.3308 4.91339 23.3308 10.9745ZM12.0942 1.74777C6.88453 1.74777 2.64693 5.8869 2.64693 10.9745C2.64693 12.9934 3.31556 14.8631 4.44655 16.3841L3.26622 19.8108L6.89673 18.675C8.38836 19.639 10.1753 20.2013 12.0944 20.2013C17.3033 20.2013 21.5416 16.0626 21.5416 10.975C21.5416 5.8874 17.3035 1.74777 12.0942 1.74777ZM17.7684 13.5021C17.699 13.3902 17.5156 13.3226 17.2405 13.1881C16.9648 13.0537 15.6102 12.4026 15.3584 12.3133C15.1059 12.2236 14.9218 12.1786 14.7384 12.4477C14.555 12.717 14.027 13.3226 13.8661 13.5021C13.7053 13.682 13.5448 13.7046 13.2691 13.5699C12.994 13.4355 12.1066 13.1511 11.0545 12.2349C10.2358 11.522 9.68289 10.6418 9.52215 10.3722C9.36167 10.1031 9.50536 9.9577 9.64295 9.82377C9.76707 9.70312 9.91865 9.50961 10.0562 9.35266C10.1943 9.19546 10.2401 9.08356 10.3314 8.90383C10.4237 8.72434 10.3777 8.56739 10.3085 8.43246C10.2399 8.29804 9.68848 6.97432 9.45908 6.43562C9.22967 5.89742 9.00053 5.98703 8.83954 5.98703C8.67906 5.98703 8.49518 5.9645 8.31155 5.9645C8.12793 5.9645 7.82935 6.03184 7.5768 6.30094C7.32451 6.57029 6.61316 7.22114 6.61316 8.54461C6.61316 9.86833 7.59969 11.1472 7.73779 11.3265C7.87538 11.5057 9.6427 14.3104 12.4428 15.3875C15.2432 16.4642 15.2432 16.1049 15.7483 16.0599C16.2529 16.0151 17.3775 15.4093 17.608 14.7815C17.8369 14.1527 17.8369 13.6142 17.7684 13.5021Z" fill="white"/>
</g>
</svg>
