<svg width="24" height="24" viewBox="0 0 24 24" fill="none" xmlns="http://www.w3.org/2000/svg">
<path d="M23.1941 11.6352C23.1941 17.6963 18.1638 22.6097 11.9574 22.6097C9.98717 22.6097 8.13618 22.114 6.52578 21.2442L0.304688 23.1899L2.33294 17.3018C1.30979 15.6481 0.720512 13.7086 0.720512 11.6352C0.720512 5.57403 5.75135 0.660645 11.9574 0.660645C18.1643 0.660645 23.1941 5.57403 23.1941 11.6352ZM11.9574 2.40842C6.74781 2.40842 2.51021 6.54755 2.51021 11.6352C2.51021 13.654 3.17884 15.5237 4.30983 17.0447L3.1295 20.4714L6.76001 19.3357C8.25164 20.2997 10.0385 20.8619 11.9577 20.8619C17.1666 20.8619 21.4049 16.7233 21.4049 11.6357C21.4049 6.54805 17.1668 2.40842 11.9574 2.40842ZM17.6317 14.1627C17.5623 14.0508 17.3789 13.9832 17.1037 13.8488C16.8281 13.7144 15.4735 13.0633 15.2217 12.9739C14.9692 12.8843 14.785 12.8392 14.6017 13.1083C14.4183 13.3777 13.8903 13.9832 13.7293 14.1627C13.5686 14.3427 13.4081 14.3652 13.1324 14.2305C12.8572 14.0961 11.9699 13.8117 10.9178 12.8956C10.0991 12.1826 9.54617 11.3025 9.38543 11.0329C9.22495 10.7638 9.36865 10.6183 9.50624 10.4844C9.63035 10.3638 9.78193 10.1703 9.91952 10.0133C10.0576 9.8561 10.1034 9.7442 10.1947 9.56447C10.287 9.38499 10.241 9.22803 10.1718 9.09311C10.1031 8.95868 9.55176 7.63496 9.32236 7.09626C9.09295 6.55806 8.86381 6.64768 8.70282 6.64768C8.54234 6.64768 8.35846 6.62515 8.17483 6.62515C7.99121 6.62515 7.69263 6.69249 7.44008 6.96159C7.18779 7.23094 6.47644 7.88178 6.47644 9.20525C6.47644 10.529 7.46297 11.8079 7.60107 11.9871C7.73866 12.1664 9.50598 14.971 12.3061 16.0482C15.1065 17.1248 15.1065 16.7656 15.6116 16.7205C16.1162 16.6757 17.2408 16.0699 17.4712 15.4421C17.7001 14.8133 17.7001 14.2748 17.6317 14.1627Z" fill="#26D367"/>
</svg>
